<?xml version="1.0" encoding="UTF-8"?>
<!DOCTYPE svg PUBLIC "-//W3C//DTD SVG 1.1//EN" "http://www.w3.org/Graphics/SVG/1.1/DTD/svg11.dtd">
<!-- Creator: CorelDRAW X7 -->
<svg xmlns="http://www.w3.org/2000/svg" xml:space="preserve" width="100%" height="100%" version="1.1" style="shape-rendering:geometricPrecision; text-rendering:geometricPrecision; image-rendering:optimizeQuality; fill-rule:evenodd; clip-rule:evenodd"
viewBox="0 0 3834 632"
 xmlns:xlink="http://www.w3.org/1999/xlink">
 <defs>
  <style type="text/css">
   <![CDATA[
    .str0 {stroke:#3E4095;stroke-width:20}
    .fil1 {fill:#3E4095}
    .fil0 {fill:#373435;fill-rule:nonzero}
   ]]>
  </style>
 </defs>
 <g id="Layer_x0020_1">
  <metadata id="CorelCorpID_0Corel-Layer"/>
  <path class="fil0" d="M283 612l-182 -269 0 269 -101 0 0 -603 101 0 0 270 182 -270 122 0 -207 299 213 304 -128 0zm294 -506l0 152 169 0 0 96 -169 0 0 160 191 0 0 98 -291 0 0 -604 291 0 0 98 -191 0zm455 512c-34,0 -66,-7 -94,-21 -28,-15 -50,-35 -67,-63 -16,-27 -24,-59 -25,-96l108 0c2,25 9,45 22,59 13,15 31,22 54,22 24,0 42,-7 56,-20 13,-14 20,-32 20,-54 0,-18 -5,-32 -14,-44 -9,-11 -20,-20 -34,-27 -14,-7 -32,-14 -56,-22 -33,-12 -60,-23 -80,-34 -20,-11 -38,-28 -52,-51 -15,-23 -22,-53 -22,-91 0,-36 7,-67 22,-94 15,-26 36,-47 63,-61 26,-14 57,-21 92,-21 51,0 93,15 126,45 32,31 50,73 53,127l-110 0c-1,-21 -9,-38 -22,-51 -14,-14 -32,-21 -55,-21 -19,0 -35,6 -47,18 -11,13 -17,30 -17,53 0,16 4,30 13,40 9,11 20,20 33,26 13,7 32,15 56,23 32,12 59,23 80,35 20,11 38,29 53,52 15,23 22,53 22,91 0,32 -7,62 -21,89 -14,28 -34,50 -61,67 -27,16 -59,24 -96,24zm694 -6l-100 0 -228 -414 0 414 -101 0 0 -604 101 0 228 415 0 -415 100 0 0 604zm200 -506l0 152 169 0 0 96 -169 0 0 160 191 0 0 98 -291 0 0 -604 291 0 0 98 -191 0zm583 506l-109 -203 -98 203 -114 0 158 -304 -160 -299 116 0 108 202 98 -202 114 0 -158 303 160 300 -115 0zm292 -603l0 373c0,41 8,72 26,94 18,22 43,32 75,32 33,0 58,-10 75,-32 18,-22 27,-53 27,-94l0 -373 101 0 0 372c0,52 -9,95 -27,131 -19,35 -43,62 -74,79 -31,18 -66,27 -104,27 -37,0 -71,-9 -101,-27 -31,-17 -55,-44 -73,-79 -17,-36 -26,-79 -26,-131l0 -372 101 0zm575 609c-35,0 -67,-7 -95,-21 -28,-15 -50,-35 -66,-63 -17,-27 -25,-59 -25,-96l107 0c2,25 9,45 22,59 13,15 32,22 55,22 23,0 42,-7 55,-20 13,-14 20,-32 20,-54 0,-18 -4,-32 -14,-44 -9,-11 -20,-20 -34,-27 -13,-7 -32,-14 -56,-22 -33,-12 -59,-23 -80,-34 -20,-11 -37,-28 -52,-51 -15,-23 -22,-53 -22,-91 0,-36 7,-67 22,-94 15,-26 36,-47 63,-61 27,-14 57,-21 92,-21 52,0 94,15 126,45 32,31 50,73 54,127l-111 0c-1,-21 -8,-38 -22,-51 -14,-14 -32,-21 -54,-21 -20,0 -36,6 -47,18 -12,13 -18,30 -18,53 0,16 4,30 13,40 9,11 20,20 33,26 13,7 32,15 56,23 33,12 59,23 80,35 20,11 38,29 53,52 15,23 22,53 22,91 0,32 -7,62 -21,89 -13,28 -34,50 -61,67 -26,16 -58,24 -95,24z"/>
  <path class="fil1 str0" d="M3735 622c-49,0 -89,-46 -89,-103 0,-57 40,-103 89,-103 49,0 89,46 89,103 0,57 -40,103 -89,103z"/>
 </g>
</svg>
