<?xml version="1.0" encoding="UTF-8"?>
<!DOCTYPE svg PUBLIC "-//W3C//DTD SVG 1.1//EN" "http://www.w3.org/Graphics/SVG/1.1/DTD/svg11.dtd">
<svg xmlns="http://www.w3.org/2000/svg" version="1.1" width="1024px" height="1024px" style="shape-rendering:geometricPrecision; text-rendering:geometricPrecision; image-rendering:optimizeQuality; fill-rule:evenodd; clip-rule:evenodd" xmlns:xlink="http://www.w3.org/1999/xlink">
<g><path style="opacity:1" fill="#cdced2" d="M -0.5,-0.5 C 340.833,-0.5 682.167,-0.5 1023.5,-0.5C 1023.5,340.833 1023.5,682.167 1023.5,1023.5C 682.167,1023.5 340.833,1023.5 -0.5,1023.5C -0.5,682.167 -0.5,340.833 -0.5,-0.5 Z"/></g>
<g><path style="opacity:1" fill="#fbfbfb" d="M 494.5,499.5 C 492.167,501.167 490.167,503.167 488.5,505.5C 473.223,519.441 458.223,533.774 443.5,548.5C 442.596,549.209 442.263,550.209 442.5,551.5C 440.771,552.117 439.271,553.117 438,554.5C 432.568,561.022 426.901,567.355 421,573.5C 417.534,579.626 413.534,585.292 409,590.5C 408,591.5 407,592.5 406,593.5C 405.667,592.833 405.333,592.167 405,591.5C 404.667,597.5 404.333,603.5 404,609.5C 403.828,603.319 403.328,597.319 402.5,591.5C 402.5,545.167 402.5,498.833 402.5,452.5C 402.5,452.167 402.5,451.833 402.5,451.5C 414.161,441.172 425.495,430.505 436.5,419.5C 443.5,412.833 450.5,406.167 457.5,399.5C 494.829,364.838 531.829,329.838 568.5,294.5C 572.859,290.472 577.193,286.472 581.5,282.5C 583.167,281.5 584.5,280.167 585.5,278.5C 594.519,270.812 603.186,262.812 611.5,254.5C 656.549,253.191 701.883,253.191 747.5,254.5C 662.953,336.388 578.619,418.054 494.5,499.5 Z"/></g>
<g><path style="opacity:1" fill="#212d53" d="M 430.5,283.5 C 430.5,282.167 430.5,280.833 430.5,279.5C 429.5,279.5 428.5,279.5 427.5,279.5C 427.875,276.603 427.375,273.937 426,271.5C 423.333,271.5 420.667,271.5 418,271.5C 417.586,271.957 417.086,272.291 416.5,272.5C 415.833,277.5 415.167,282.5 414.5,287.5C 409.923,287.635 405.423,287.968 401,288.5C 400.333,287.833 399.667,287.167 399,286.5C 398.667,281.5 398.333,276.5 398,271.5C 394,271.5 390,271.5 386,271.5C 385.586,271.957 385.086,272.291 384.5,272.5C 383.833,277.5 383.167,282.5 382.5,287.5C 381.914,287.709 381.414,288.043 381,288.5C 371.667,288.5 362.333,288.5 353,288.5C 352.333,287.833 351.667,287.167 351,286.5C 350.667,281.5 350.333,276.5 350,271.5C 341.494,272.528 331.327,272.528 319.5,271.5C 318.835,282.156 318.169,292.823 317.5,303.5C 317.835,311.529 318.502,319.529 319.5,327.5C 318.833,332.833 318.167,338.167 317.5,343.5C 318.126,348.672 318.792,353.839 319.5,359C 317.68,372.326 317.014,385.826 317.5,399.5C 322.949,399.398 328.115,399.065 333,398.5C 333.414,398.957 333.914,399.291 334.5,399.5C 335.833,404.833 335.833,410.167 334.5,415.5C 333.914,415.709 333.414,416.043 333,416.5C 328.115,415.935 322.949,415.602 317.5,415.5C 317.057,434.212 317.724,452.879 319.5,471.5C 317.334,495.468 317.001,519.468 318.5,543.5C 320.071,542.691 321.738,542.357 323.5,542.5C 323.5,537.5 323.5,532.5 323.5,527.5C 322.5,527.5 321.5,527.5 320.5,527.5C 320.5,516.833 320.5,506.167 320.5,495.5C 331.893,494.947 341.726,494.947 350,495.5C 351.017,493.624 351.851,491.624 352.5,489.5C 356.5,487.5 359.5,484.5 361.5,480.5C 363.078,479.702 364.744,479.202 366.5,479C 366.865,475.067 368.865,472.401 372.5,471C 374.432,469.036 376.099,466.869 377.5,464.5C 380.497,463.752 383.497,463.085 386.5,462.5C 387.489,458.893 387.823,455.226 387.5,451.5C 391.967,451.867 396.3,451.367 400.5,450C 401.984,444.684 405.317,441.184 410.5,439.5C 410.45,442.152 409.45,443.152 407.5,442.5C 405.997,443.59 405.664,444.757 406.5,446C 405.437,447.188 404.103,447.688 402.5,447.5C 402.5,448.833 402.5,450.167 402.5,451.5C 401.504,451.414 400.671,451.748 400,452.5C 399.529,454.246 398.862,455.913 398,457.5C 397.667,456.833 397.333,456.167 397,455.5C 393.48,457.13 391.646,459.797 391.5,463.5C 387.128,464.539 384.461,467.206 383.5,471.5C 380.592,471.262 378.258,472.262 376.5,474.5C 375.548,476.045 375.215,477.712 375.5,479.5C 370.465,479.868 367.798,482.535 367.5,487.5C 362.465,487.868 359.798,490.535 359.5,495.5C 358.167,495.5 356.833,495.5 355.5,495.5C 355.5,496.833 355.5,498.167 355.5,499.5C 354.167,499.5 352.833,499.5 351.5,499.5C 351.557,505.423 348.891,509.423 343.5,511.5C 343.338,513.824 342.172,515.491 340,516.5C 339.667,530.5 339.333,544.5 339,558.5C 338.667,559.167 338.333,559.833 338,560.5C 337.333,559.167 336.667,559.167 336,560.5C 334.362,586.809 333.529,613.143 333.5,639.5C 330.833,639.5 328.167,639.5 325.5,639.5C 327.253,644.778 327.92,655.445 327.5,671.5C 328.5,671.5 329.5,671.5 330.5,671.5C 329.834,687.491 329.5,703.491 329.5,719.5C 326.352,719.45 323.019,719.783 319.5,720.5C 318.378,733.197 318.544,745.864 320,758.5C 321.509,759.09 323.009,759.756 324.5,760.5C 323.833,760.833 323.167,761.167 322.5,761.5C 336.461,762.188 351.461,762.521 367.5,762.5C 367.5,762.833 367.5,763.167 367.5,763.5C 347.5,763.5 327.5,763.5 307.5,763.5C 307.5,762.167 307.5,760.833 307.5,759.5C 308.5,597.001 308.833,434.334 308.5,271.5C 309.326,267.018 309.826,262.351 310,257.5C 311.738,256.873 313.571,256.54 315.5,256.5C 327.556,258.33 339.556,258.33 351.5,256.5C 363.58,256.725 375.58,257.725 387.5,259.5C 392.953,259.137 398.286,258.137 403.5,256.5C 412.275,259.403 421.275,260.737 430.5,260.5C 431.748,268.308 431.748,275.975 430.5,283.5 Z"/></g>
<g><path style="opacity:1" fill="#1e2a4e" d="M 585.5,274.5 C 585.167,274.5 584.833,274.5 584.5,274.5C 584.5,273.5 584.5,272.5 584.5,271.5C 581.482,271.335 578.482,271.502 575.5,272C 569.468,275.008 563.302,277.508 557,279.5C 555.632,278.297 554.132,277.297 552.5,276.5C 551.575,277.641 550.741,277.641 550,276.5C 550.077,277.738 549.911,278.738 549.5,279.5C 548.185,277.684 546.685,276.017 545,274.5C 544.493,275.996 544.993,277.163 546.5,278C 544.934,278.3 543.601,277.8 542.5,276.5C 547.806,270.527 553.473,264.86 559.5,259.5C 561.199,259.66 562.866,259.494 564.5,259C 563.542,257.853 563.875,256.853 565.5,256C 577.833,255.333 590.167,255.333 602.5,256C 601.07,258.483 598.903,260.983 596,263.5C 594.838,265.824 593.671,268.158 592.5,270.5C 590.146,271.998 587.813,273.332 585.5,274.5 Z"/></g>
<g><path style="opacity:1" fill="#2e354b" d="M 611.5,254.5 C 603.186,262.812 594.519,270.812 585.5,278.5C 585.5,277.167 585.5,275.833 585.5,274.5C 587.813,273.332 590.146,271.998 592.5,270.5C 593.671,268.158 594.838,265.824 596,263.5C 598.903,260.983 601.07,258.483 602.5,256C 590.167,255.333 577.833,255.333 565.5,256C 563.875,256.853 563.542,257.853 564.5,259C 562.866,259.494 561.199,259.66 559.5,259.5C 561.604,257.901 563.604,256.068 565.5,254C 581.006,253.172 596.339,253.339 611.5,254.5 Z"/></g>
<g><path style="opacity:1" fill="#212d58" d="M 430.5,283.5 C 429.5,283.5 428.5,283.5 427.5,283.5C 427.667,300.503 427.5,317.503 427,334.5C 423.572,335.64 420.072,335.64 416.5,334.5C 415.833,329.5 415.167,324.5 414.5,319.5C 413.914,319.291 413.414,318.957 413,318.5C 409,318.5 405,318.5 401,318.5C 400.333,319.167 399.667,319.833 399,320.5C 398.667,330.833 398.333,341.167 398,351.5C 388.333,351.167 378.667,350.833 369,350.5C 368.333,351.167 367.667,351.833 367,352.5C 366.333,362.5 366.333,372.5 367,382.5C 367.667,383.167 368.333,383.833 369,384.5C 378.667,384.167 388.333,383.833 398,383.5C 398.333,388.5 398.667,393.5 399,398.5C 399.667,399.167 400.333,399.833 401,400.5C 405.667,399.167 410.333,399.167 415,400.5C 415.333,405.167 415.667,409.833 416,414.5C 419.081,415.996 419.247,417.663 416.5,419.5C 415.571,418.311 415.238,416.978 415.5,415.5C 412.833,415.5 410.167,415.5 407.5,415.5C 407.5,420.833 407.5,426.167 407.5,431.5C 399.487,429.18 397.154,431.847 400.5,439.5C 405.459,432.832 411.792,430.499 419.5,432.5C 416.368,434.657 413.368,436.99 410.5,439.5C 405.317,441.184 401.984,444.684 400.5,450C 396.3,451.367 391.967,451.867 387.5,451.5C 387.823,455.226 387.489,458.893 386.5,462.5C 383.497,463.085 380.497,463.752 377.5,464.5C 376.099,466.869 374.432,469.036 372.5,471C 368.865,472.401 366.865,475.067 366.5,479C 364.744,479.202 363.078,479.702 361.5,480.5C 359.5,484.5 356.5,487.5 352.5,489.5C 351.851,491.624 351.017,493.624 350,495.5C 341.726,494.947 331.893,494.947 320.5,495.5C 320.5,506.167 320.5,516.833 320.5,527.5C 321.5,527.5 322.5,527.5 323.5,527.5C 323.5,532.5 323.5,537.5 323.5,542.5C 321.738,542.357 320.071,542.691 318.5,543.5C 317.001,519.468 317.334,495.468 319.5,471.5C 317.724,452.879 317.057,434.212 317.5,415.5C 322.949,415.602 328.115,415.935 333,416.5C 333.414,416.043 333.914,415.709 334.5,415.5C 335.833,410.167 335.833,404.833 334.5,399.5C 333.914,399.291 333.414,398.957 333,398.5C 328.115,399.065 322.949,399.398 317.5,399.5C 317.014,385.826 317.68,372.326 319.5,359C 318.792,353.839 318.126,348.672 317.5,343.5C 318.167,338.167 318.833,332.833 319.5,327.5C 318.502,319.529 317.835,311.529 317.5,303.5C 318.169,292.823 318.835,282.156 319.5,271.5C 331.327,272.528 341.494,272.528 350,271.5C 350.333,276.5 350.667,281.5 351,286.5C 351.667,287.167 352.333,287.833 353,288.5C 362.333,288.5 371.667,288.5 381,288.5C 381.414,288.043 381.914,287.709 382.5,287.5C 383.167,282.5 383.833,277.5 384.5,272.5C 385.086,272.291 385.586,271.957 386,271.5C 390,271.5 394,271.5 398,271.5C 398.333,276.5 398.667,281.5 399,286.5C 399.667,287.167 400.333,287.833 401,288.5C 405.423,287.968 409.923,287.635 414.5,287.5C 415.167,282.5 415.833,277.5 416.5,272.5C 417.086,272.291 417.586,271.957 418,271.5C 420.667,271.5 423.333,271.5 426,271.5C 427.375,273.937 427.875,276.603 427.5,279.5C 428.5,279.5 429.5,279.5 430.5,279.5C 430.5,280.833 430.5,282.167 430.5,283.5 Z"/></g>
<g><path style="opacity:1" fill="#1a2243" d="M 584.5,274.5 C 584.607,276.379 584.107,276.712 583,275.5C 580.072,276.76 578.239,278.927 577.5,282C 571.965,284.424 566.298,286.257 560.5,287.5C 559.051,285.751 557.718,285.584 556.5,287C 556.833,287.333 557.167,287.667 557.5,288C 554.418,289.872 551.751,292.205 549.5,295C 547.527,295.495 545.527,295.662 543.5,295.5C 543.649,296.552 543.483,297.552 543,298.5C 540.833,299.333 539.333,300.833 538.5,303C 535.173,303.61 531.839,304.11 528.5,304.5C 528.116,306.929 527.449,309.263 526.5,311.5C 522.294,313.165 517.961,314.665 513.5,316C 512.989,320.029 510.989,323.029 507.5,325C 505.888,325.72 504.388,325.554 503,324.5C 501.951,326.107 500.451,326.773 498.5,326.5C 497.332,328.813 495.998,331.146 494.5,333.5C 491.161,335.008 488.661,337.342 487,340.5C 486.517,341.448 486.351,342.448 486.5,343.5C 481.819,345.86 477.319,348.527 473,351.5C 469.199,351.585 468.532,350.252 471,347.5C 473.365,344.131 476.532,341.964 480.5,341C 479.483,339.951 479.316,338.784 480,337.5C 483.997,336.135 487.497,333.968 490.5,331C 492.057,325.276 495.724,321.776 501.5,320.5C 504.585,315.328 507.919,310.328 511.5,305.5C 521.48,295.523 531.813,285.856 542.5,276.5C 543.601,277.8 544.934,278.3 546.5,278C 544.993,277.163 544.493,275.996 545,274.5C 546.685,276.017 548.185,277.684 549.5,279.5C 549.911,278.738 550.077,277.738 550,276.5C 550.741,277.641 551.575,277.641 552.5,276.5C 554.132,277.297 555.632,278.297 557,279.5C 563.302,277.508 569.468,275.008 575.5,272C 578.482,271.502 581.482,271.335 584.5,271.5C 584.5,272.5 584.5,273.5 584.5,274.5 Z"/></g>
<g><path style="opacity:1" fill="#212e53" d="M 351.5,255.5 C 378.5,255.5 405.5,255.5 432.5,255.5C 432.287,297.289 432.287,338.956 432.5,380.5C 433.292,392.121 433.792,403.788 434,415.5C 435.728,416.352 435.895,417.352 434.5,418.5C 431.577,420.71 429.077,423.377 427,426.5C 426.667,426.167 426.333,425.833 426,425.5C 425.097,426.701 423.931,427.535 422.5,428C 421.947,429.878 420.947,431.378 419.5,432.5C 411.792,430.499 405.459,432.832 400.5,439.5C 397.154,431.847 399.487,429.18 407.5,431.5C 407.5,426.167 407.5,420.833 407.5,415.5C 410.167,415.5 412.833,415.5 415.5,415.5C 415.238,416.978 415.571,418.311 416.5,419.5C 419.247,417.663 419.081,415.996 416,414.5C 415.667,409.833 415.333,405.167 415,400.5C 410.333,399.167 405.667,399.167 401,400.5C 400.333,399.833 399.667,399.167 399,398.5C 398.667,393.5 398.333,388.5 398,383.5C 388.333,383.833 378.667,384.167 369,384.5C 368.333,383.833 367.667,383.167 367,382.5C 366.333,372.5 366.333,362.5 367,352.5C 367.667,351.833 368.333,351.167 369,350.5C 378.667,350.833 388.333,351.167 398,351.5C 398.333,341.167 398.667,330.833 399,320.5C 399.667,319.833 400.333,319.167 401,318.5C 405,318.5 409,318.5 413,318.5C 413.414,318.957 413.914,319.291 414.5,319.5C 415.167,324.5 415.833,329.5 416.5,334.5C 420.072,335.64 423.572,335.64 427,334.5C 427.5,317.503 427.667,300.503 427.5,283.5C 428.5,283.5 429.5,283.5 430.5,283.5C 431.748,275.975 431.748,268.308 430.5,260.5C 421.275,260.737 412.275,259.403 403.5,256.5C 398.286,258.137 392.953,259.137 387.5,259.5C 375.58,257.725 363.58,256.725 351.5,256.5C 339.556,258.33 327.556,258.33 315.5,256.5C 313.571,256.54 311.738,256.873 310,257.5C 309.826,262.351 309.326,267.018 308.5,271.5C 308.195,266.238 308.529,261.072 309.5,256C 323.496,255.5 337.496,255.333 351.5,255.5 Z"/></g>
<g><path style="opacity:1" fill="#a6acc1" d="M 433.5,254.5 C 434.167,295.5 434.833,336.5 435.5,377.5C 435.672,378.492 435.338,379.158 434.5,379.5C 433.501,338.003 433.168,296.337 433.5,254.5 Z"/></g>
<g><path style="opacity:1" fill="#252d48" d="M 351.5,255.5 C 351.5,255.167 351.5,254.833 351.5,254.5C 378.833,254.5 406.167,254.5 433.5,254.5C 433.168,296.337 433.501,338.003 434.5,379.5C 434.158,380.338 433.492,380.672 432.5,380.5C 432.287,338.956 432.287,297.289 432.5,255.5C 405.5,255.5 378.5,255.5 351.5,255.5 Z"/></g>
<g><path style="opacity:1" fill="#141933" d="M 581.5,282.5 C 577.193,286.472 572.859,290.472 568.5,294.5C 565.6,293.046 564.267,294.046 564.5,297.5C 562.876,297.36 561.71,298.027 561,299.5C 560.667,298.833 560.333,298.167 560,297.5C 555.483,301.848 551.483,306.848 548,312.5C 547.667,312.167 547.333,311.833 547,311.5C 544.696,314.025 541.863,315.691 538.5,316.5C 536.981,318.556 536.147,320.89 536,323.5C 533.741,326.049 530.908,327.716 527.5,328.5C 527.598,327.384 527.098,326.384 526,325.5C 524.642,327.189 522.975,328.522 521,329.5C 520.667,328.833 520.333,328.167 520,327.5C 519.316,328.784 519.483,329.951 520.5,331C 517.655,331.538 514.988,332.538 512.5,334C 511.289,335.113 511.289,336.28 512.5,337.5C 509.443,338.39 507.609,340.39 507,343.5C 502.855,345.987 499.022,348.821 495.5,352C 496.845,354.78 496.512,357.613 494.5,360.5C 492.527,361.331 490.527,361.498 488.5,361C 489.535,362.507 489.368,364.007 488,365.5C 483.939,371.23 478.939,375.896 473,379.5C 472.333,378.833 471.667,378.167 471,377.5C 469.59,378.787 468.09,379.954 466.5,381C 467.554,382.388 467.72,383.888 467,385.5C 464.5,387.333 462.333,389.5 460.5,392C 459.5,392.333 458.5,392.667 457.5,393C 457.784,394.956 457.784,397.123 457.5,399.5C 450.5,406.167 443.5,412.833 436.5,419.5C 437.004,415.978 437.671,412.478 438.5,409C 437.25,406.834 436.584,404.501 436.5,402C 437.427,395.846 438.26,389.679 439,383.5C 440.77,384.276 442.603,384.11 444.5,383C 446.881,378.598 450.548,376.098 455.5,375.5C 456.677,372.962 458.344,370.629 460.5,368.5C 460.291,367.914 459.957,367.414 459.5,367C 460.667,365.167 462.167,363.667 464,362.5C 464.483,361.552 464.649,360.552 464.5,359.5C 471.75,359.704 478.416,357.871 484.5,354C 484.982,352.992 485.148,351.825 485,350.5C 487.317,348.684 489.484,346.684 491.5,344.5C 493.833,343.833 496.167,343.167 498.5,342.5C 500.005,340.496 501.672,338.663 503.5,337C 503.241,335.739 502.574,334.739 501.5,334C 503.925,332.355 506.592,331.189 509.5,330.5C 510.624,329.086 511.624,327.586 512.5,326C 515.141,325.677 517.475,324.677 519.5,323C 522.113,320.427 524.779,317.927 527.5,315.5C 528.246,314.264 528.579,312.93 528.5,311.5C 533.368,311.76 538.035,310.926 542.5,309C 546.286,304.258 550.619,300.091 555.5,296.5C 557.006,295.253 558.506,295.253 560,296.5C 566.115,290.775 572.782,285.775 580,281.5C 580.383,282.056 580.883,282.389 581.5,282.5 Z"/></g>
<g><path style="opacity:1" fill="#181e3a" d="M 584.5,274.5 C 584.833,274.5 585.167,274.5 585.5,274.5C 585.5,275.833 585.5,277.167 585.5,278.5C 584.5,280.167 583.167,281.5 581.5,282.5C 580.883,282.389 580.383,282.056 580,281.5C 572.782,285.775 566.115,290.775 560,296.5C 558.506,295.253 557.006,295.253 555.5,296.5C 550.619,300.091 546.286,304.258 542.5,309C 538.035,310.926 533.368,311.76 528.5,311.5C 528.579,312.93 528.246,314.264 527.5,315.5C 524.779,317.927 522.113,320.427 519.5,323C 517.475,324.677 515.141,325.677 512.5,326C 511.624,327.586 510.624,329.086 509.5,330.5C 506.592,331.189 503.925,332.355 501.5,334C 502.574,334.739 503.241,335.739 503.5,337C 501.672,338.663 500.005,340.496 498.5,342.5C 496.167,343.167 493.833,343.833 491.5,344.5C 489.484,346.684 487.317,348.684 485,350.5C 485.148,351.825 484.982,352.992 484.5,354C 478.416,357.871 471.75,359.704 464.5,359.5C 464.649,360.552 464.483,361.552 464,362.5C 462.167,363.667 460.667,365.167 459.5,367C 459.957,367.414 460.291,367.914 460.5,368.5C 458.344,370.629 456.677,372.962 455.5,375.5C 450.548,376.098 446.881,378.598 444.5,383C 442.603,384.11 440.77,384.276 439,383.5C 438.26,389.679 437.427,395.846 436.5,402C 436.584,404.501 437.25,406.834 438.5,409C 437.671,412.478 437.004,415.978 436.5,419.5C 435.833,419.167 435.167,418.833 434.5,418.5C 435.895,417.352 435.728,416.352 434,415.5C 433.792,403.788 433.292,392.121 432.5,380.5C 433.492,380.672 434.158,380.338 434.5,379.5C 435.338,379.158 435.672,378.492 435.5,377.5C 461.162,353.838 486.495,329.838 511.5,305.5C 507.919,310.328 504.585,315.328 501.5,320.5C 495.724,321.776 492.057,325.276 490.5,331C 487.497,333.968 483.997,336.135 480,337.5C 479.316,338.784 479.483,339.951 480.5,341C 476.532,341.964 473.365,344.131 471,347.5C 468.532,350.252 469.199,351.585 473,351.5C 477.319,348.527 481.819,345.86 486.5,343.5C 486.351,342.448 486.517,341.448 487,340.5C 488.661,337.342 491.161,335.008 494.5,333.5C 495.998,331.146 497.332,328.813 498.5,326.5C 500.451,326.773 501.951,326.107 503,324.5C 504.388,325.554 505.888,325.72 507.5,325C 510.989,323.029 512.989,320.029 513.5,316C 517.961,314.665 522.294,313.165 526.5,311.5C 527.449,309.263 528.116,306.929 528.5,304.5C 531.839,304.11 535.173,303.61 538.5,303C 539.333,300.833 540.833,299.333 543,298.5C 543.483,297.552 543.649,296.552 543.5,295.5C 545.527,295.662 547.527,295.495 549.5,295C 551.751,292.205 554.418,289.872 557.5,288C 557.167,287.667 556.833,287.333 556.5,287C 557.718,285.584 559.051,285.751 560.5,287.5C 566.298,286.257 571.965,284.424 577.5,282C 578.239,278.927 580.072,276.76 583,275.5C 584.107,276.712 584.607,276.379 584.5,274.5 Z"/></g>
<g><path style="opacity:1" fill="#151a2d" d="M 568.5,294.5 C 531.829,329.838 494.829,364.838 457.5,399.5C 457.784,397.123 457.784,394.956 457.5,393C 458.5,392.667 459.5,392.333 460.5,392C 462.333,389.5 464.5,387.333 467,385.5C 467.72,383.888 467.554,382.388 466.5,381C 468.09,379.954 469.59,378.787 471,377.5C 471.667,378.167 472.333,378.833 473,379.5C 478.939,375.896 483.939,371.23 488,365.5C 489.368,364.007 489.535,362.507 488.5,361C 490.527,361.498 492.527,361.331 494.5,360.5C 496.512,357.613 496.845,354.78 495.5,352C 499.022,348.821 502.855,345.987 507,343.5C 507.609,340.39 509.443,338.39 512.5,337.5C 511.289,336.28 511.289,335.113 512.5,334C 514.988,332.538 517.655,331.538 520.5,331C 519.483,329.951 519.316,328.784 520,327.5C 520.333,328.167 520.667,328.833 521,329.5C 522.975,328.522 524.642,327.189 526,325.5C 527.098,326.384 527.598,327.384 527.5,328.5C 530.908,327.716 533.741,326.049 536,323.5C 536.147,320.89 536.981,318.556 538.5,316.5C 541.863,315.691 544.696,314.025 547,311.5C 547.333,311.833 547.667,312.167 548,312.5C 551.483,306.848 555.483,301.848 560,297.5C 560.333,298.167 560.667,298.833 561,299.5C 561.71,298.027 562.876,297.36 564.5,297.5C 564.267,294.046 565.6,293.046 568.5,294.5 Z"/></g>
<g><path style="opacity:1" fill="#1d2344" d="M 307.5,254.5 C 322.167,254.5 336.833,254.5 351.5,254.5C 351.5,254.833 351.5,255.167 351.5,255.5C 337.496,255.333 323.496,255.5 309.5,256C 308.529,261.072 308.195,266.238 308.5,271.5C 308.833,434.334 308.5,597.001 307.5,759.5C 307.5,591.167 307.5,422.833 307.5,254.5 Z"/></g>
<g><path style="opacity:1" fill="#272d48" d="M 434.5,418.5 C 435.167,418.833 435.833,419.167 436.5,419.5C 425.495,430.505 414.161,441.172 402.5,451.5C 402.5,450.167 402.5,448.833 402.5,447.5C 404.103,447.688 405.437,447.188 406.5,446C 405.664,444.757 405.997,443.59 407.5,442.5C 409.45,443.152 410.45,442.152 410.5,439.5C 413.368,436.99 416.368,434.657 419.5,432.5C 420.947,431.378 421.947,429.878 422.5,428C 423.931,427.535 425.097,426.701 426,425.5C 426.333,425.833 426.667,426.167 427,426.5C 429.077,423.377 431.577,420.71 434.5,418.5 Z"/></g>
<g><path style="opacity:1" fill="#212e54" d="M 352.5,430.5 C 357.147,430.793 361.814,431.126 366.5,431.5C 367.833,436.833 367.833,442.167 366.5,447.5C 361.833,447.833 357.167,448.167 352.5,448.5C 351.833,458.833 351.167,469.167 350.5,479.5C 345.923,479.635 341.423,479.968 337,480.5C 336.333,479.833 335.667,479.167 335,478.5C 334.333,468.5 334.333,458.5 335,448.5C 335.667,447.833 336.333,447.167 337,446.5C 341.333,446.833 345.667,447.167 350,447.5C 350.333,442.5 350.667,437.5 351,432.5C 351.717,431.956 352.217,431.289 352.5,430.5 Z"/></g>
<g><path style="opacity:1" fill="#151b35" d="M 400.5,467.5 C 401.007,502.219 400.007,536.886 397.5,571.5C 398.492,582.184 398.825,592.851 398.5,603.5C 398.402,605.619 397.569,607.286 396,608.5C 395.833,613.5 395.667,618.5 395.5,623.5C 397.458,641.428 399.125,659.594 400.5,678C 399.432,683.778 398.765,689.611 398.5,695.5C 399.766,701.395 400.433,707.395 400.5,713.5C 399.218,723.502 399.218,733.502 400.5,743.5C 400.7,747.362 400.034,751.029 398.5,754.5C 399.256,756.451 399.589,758.284 399.5,760C 398.508,762.286 396.674,762.786 394,761.5C 389.985,761.542 386.485,762.542 383.5,764.5C 380.833,764.5 378.167,764.5 375.5,764.5C 352.661,764.831 329.994,764.497 307.5,763.5C 327.5,763.5 347.5,763.5 367.5,763.5C 372.473,762.836 377.473,762.503 382.5,762.5C 382.649,761.448 382.483,760.448 382,759.5C 380.406,758.427 378.906,757.427 377.5,756.5C 378.035,754.729 378.869,754.396 380,755.5C 382.333,754.5 384,752.833 385,750.5C 383.814,724.204 383.314,697.87 383.5,671.5C 381.833,671.5 380.167,671.5 378.5,671.5C 378.588,666.464 379.088,661.464 380,656.5C 381,656.167 382,655.833 383,655.5C 383.5,644.839 383.667,634.172 383.5,623.5C 381.533,623.739 379.699,623.406 378,622.5C 378.05,601.5 378.55,580.5 379.5,559.5C 379.16,555.442 378.493,551.442 377.5,547.5C 377.436,545.611 377.936,543.944 379,542.5C 379.167,534.667 379.333,526.833 379.5,519C 379.469,510.669 378.802,502.503 377.5,494.5C 379.185,492.983 380.685,491.316 382,489.5C 383.319,491.25 383.819,493.25 383.5,495.5C 385.201,495.034 386.701,495.034 388,495.5C 388.075,490.37 389.242,485.537 391.5,481C 391.355,480.228 391.022,479.561 390.5,479C 393.115,475.871 396.115,473.371 399.5,471.5C 399.232,469.901 399.566,468.568 400.5,467.5 Z"/></g>
<g><path style="opacity:1" fill="#050609" d="M 629.5,464.5 C 629.5,467.167 629.5,469.833 629.5,472.5C 621.981,472.175 614.648,472.508 607.5,473.5C 605.586,476.684 604.92,480.351 605.5,484.5C 612.5,484.5 619.5,484.5 626.5,484.5C 626.5,487.167 626.5,489.833 626.5,492.5C 619.313,492.175 612.313,492.509 605.5,493.5C 605.5,497.167 605.5,500.833 605.5,504.5C 613.833,504.5 622.167,504.5 630.5,504.5C 630.5,507.5 630.5,510.5 630.5,513.5C 625.5,513.5 620.5,513.5 615.5,513.5C 609.355,512.51 603.022,512.177 596.5,512.5C 596.826,503.983 596.493,495.65 595.5,487.5C 595.5,479.833 595.5,472.167 595.5,464.5C 606.833,464.5 618.167,464.5 629.5,464.5 Z"/></g>
<g><path style="opacity:1" fill="#090a0c" d="M 729.5,464.5 C 740.833,464.5 752.167,464.5 763.5,464.5C 763.5,467.167 763.5,469.833 763.5,472.5C 755.167,472.5 746.833,472.5 738.5,472.5C 738.183,476.702 738.517,480.702 739.5,484.5C 746.167,484.5 752.833,484.5 759.5,484.5C 759.5,487.5 759.5,490.5 759.5,493.5C 752.833,493.5 746.167,493.5 739.5,493.5C 739.5,497.167 739.5,500.833 739.5,504.5C 747.167,504.5 754.833,504.5 762.5,504.5C 762.5,507.5 762.5,510.5 762.5,513.5C 751.833,513.5 741.167,513.5 730.5,513.5C 729.516,497.244 729.182,480.911 729.5,464.5 Z"/></g>
<g><path style="opacity:1" fill="#09090b" d="M 814.5,464.5 C 817.5,464.5 820.5,464.5 823.5,464.5C 823.333,475.838 823.5,487.172 824,498.5C 826.425,504.795 830.925,506.962 837.5,505C 839.378,503.457 840.878,501.624 842,499.5C 842.5,487.838 842.667,476.171 842.5,464.5C 845.833,464.5 849.167,464.5 852.5,464.5C 852.667,476.838 852.5,489.171 852,501.5C 843.185,515.654 831.851,517.987 818,508.5C 817.333,507.167 816.667,505.833 816,504.5C 814.556,491.24 814.056,477.907 814.5,464.5 Z"/></g>
<g><path style="opacity:1" fill="#292a2e" d="M 629.5,464.5 C 630.477,467.287 630.81,470.287 630.5,473.5C 622.833,473.5 615.167,473.5 607.5,473.5C 614.648,472.508 621.981,472.175 629.5,472.5C 629.5,469.833 629.5,467.167 629.5,464.5 Z"/></g>
<g><path style="opacity:1" fill="#6d6e72" d="M 763.5,472.5 C 755.684,473.492 747.684,473.826 739.5,473.5C 739.5,477.167 739.5,480.833 739.5,484.5C 738.517,480.702 738.183,476.702 738.5,472.5C 746.833,472.5 755.167,472.5 763.5,472.5 Z"/></g>
<g><path style="opacity:1" fill="#1a2241" d="M 389.5,471.5 C 389.167,475.167 387.167,477.167 383.5,477.5C 383.649,478.552 383.483,479.552 383,480.5C 378.712,484.774 374.879,489.274 371.5,494C 372.388,495.22 373.055,496.553 373.5,498C 372.641,512.821 372.475,527.655 373,542.5C 371.301,543.406 369.467,543.739 367.5,543.5C 369.396,580.779 370.063,618.112 369.5,655.5C 370.833,655.5 372.167,655.5 373.5,655.5C 372.167,682.167 370.833,708.833 369.5,735.5C 368.448,735.351 367.448,735.517 366.5,736C 367.471,741.072 367.805,746.238 367.5,751.5C 372.532,751.332 372.699,752.332 368,754.5C 366.967,757.217 367.8,759.051 370.5,760C 369.906,760.464 369.239,760.631 368.5,760.5C 366.539,758.688 364.206,757.688 361.5,757.5C 358.57,756.701 355.57,756.368 352.5,756.5C 352.5,755.5 352.5,754.5 352.5,753.5C 354.833,753.5 357.167,753.5 359.5,753.5C 359.5,742.167 359.5,730.833 359.5,719.5C 361.201,719.034 362.701,719.034 364,719.5C 364.5,703.503 364.667,687.503 364.5,671.5C 362.167,671.5 359.833,671.5 357.5,671.5C 357.5,655.5 357.5,639.5 357.5,623.5C 359.833,623.5 362.167,623.5 364.5,623.5C 364.5,618.167 364.5,612.833 364.5,607.5C 363.5,607.5 362.5,607.5 361.5,607.5C 361.5,586.167 361.5,564.833 361.5,543.5C 362.5,543.5 363.5,543.5 364.5,543.5C 363.325,535.46 361.825,527.46 360,519.5C 359.818,522.226 359.318,524.893 358.5,527.5C 357.792,521.813 357.125,516.146 356.5,510.5C 358.755,505.58 362.088,501.58 366.5,498.5C 367.281,497.271 367.781,495.938 368,494.5C 368.333,494.833 368.667,495.167 369,495.5C 370.702,492.623 372.202,489.623 373.5,486.5C 377.745,482.843 381.412,478.676 384.5,474C 386.249,473.215 387.916,472.382 389.5,471.5 Z"/></g>
<g><path style="opacity:1" fill="#090a0c" d="M 708.5,493.5 C 708.56,494.043 708.893,494.376 709.5,494.5C 710.499,484.522 710.832,474.522 710.5,464.5C 713.777,464.216 716.943,464.549 720,465.5C 720.5,481.497 720.667,497.497 720.5,513.5C 717.482,513.665 714.482,513.498 711.5,513C 704.333,503.167 697.167,493.333 690,483.5C 689.31,482.262 688.81,482.262 688.5,483.5C 687.506,492.986 687.173,502.652 687.5,512.5C 684.5,512.5 681.5,512.5 678.5,512.5C 678.5,496.5 678.5,480.5 678.5,464.5C 681.518,464.335 684.518,464.502 687.5,465C 695.104,474.096 702.104,483.596 708.5,493.5 Z"/></g>
<g><path style="opacity:1" fill="#090a0c" d="M 646.5,464.5 C 652.245,464.211 657.912,464.711 663.5,466C 665.717,467.268 667.717,468.768 669.5,470.5C 668.627,472.413 667.627,474.247 666.5,476C 665.167,476.667 663.833,476.667 662.5,476C 658.311,472.559 653.644,471.726 648.5,473.5C 645.833,476.167 645.833,478.833 648.5,481.5C 654.538,483.568 660.538,485.735 666.5,488C 670.781,493.623 671.615,499.79 669,506.5C 667.5,508.667 665.667,510.5 663.5,512C 654.871,514.503 646.538,513.836 638.5,510C 636.415,508.959 634.748,507.459 633.5,505.5C 635.817,503.684 637.984,501.684 640,499.5C 645.883,506.151 652.55,507.151 660,502.5C 660.758,500.231 660.591,498.064 659.5,496C 653.683,494.06 648.017,491.727 642.5,489C 633.81,479.275 635.143,471.108 646.5,464.5 Z"/></g>
<g><path style="opacity:1" fill="#838387" d="M 710.5,464.5 C 710.832,474.522 710.499,484.522 709.5,494.5C 708.893,494.376 708.56,494.043 708.5,493.5C 709.167,483.833 709.833,474.167 710.5,464.5 Z"/></g>
<g><path style="opacity:1" fill="#1c2647" d="M 402.5,451.5 C 402.5,451.833 402.5,452.167 402.5,452.5C 401.662,452.842 401.328,453.508 401.5,454.5C 400.596,455.209 400.263,456.209 400.5,457.5C 397.152,460.222 394.818,463.556 393.5,467.5C 390.5,467.167 389.167,468.5 389.5,471.5C 387.916,472.382 386.249,473.215 384.5,474C 381.412,478.676 377.745,482.843 373.5,486.5C 372.202,489.623 370.702,492.623 369,495.5C 368.667,495.167 368.333,494.833 368,494.5C 367.781,495.938 367.281,497.271 366.5,498.5C 362.088,501.58 358.755,505.58 356.5,510.5C 357.125,516.146 357.792,521.813 358.5,527.5C 359.318,524.893 359.818,522.226 360,519.5C 361.825,527.46 363.325,535.46 364.5,543.5C 363.5,543.5 362.5,543.5 361.5,543.5C 361.5,564.833 361.5,586.167 361.5,607.5C 362.5,607.5 363.5,607.5 364.5,607.5C 364.5,612.833 364.5,618.167 364.5,623.5C 362.167,623.5 359.833,623.5 357.5,623.5C 357.5,639.5 357.5,655.5 357.5,671.5C 359.833,671.5 362.167,671.5 364.5,671.5C 364.667,687.503 364.5,703.503 364,719.5C 362.701,719.034 361.201,719.034 359.5,719.5C 359.5,730.833 359.5,742.167 359.5,753.5C 357.167,753.5 354.833,753.5 352.5,753.5C 352.5,754.5 352.5,755.5 352.5,756.5C 355.57,756.368 358.57,756.701 361.5,757.5C 360.306,758.777 358.64,759.444 356.5,759.5C 353.989,759.712 351.822,759.045 350,757.5C 348.984,758.634 348.317,758.301 348,756.5C 345.667,756.833 343.333,757.167 341,757.5C 340.51,756.207 340.343,754.873 340.5,753.5C 344.226,753.823 347.893,753.489 351.5,752.5C 350.726,751.289 349.893,751.289 349,752.5C 348.5,738.837 348.333,725.171 348.5,711.5C 349.5,711.5 350.5,711.5 351.5,711.5C 351.5,703.5 351.5,695.5 351.5,687.5C 349.5,687.5 347.5,687.5 345.5,687.5C 345.5,671.5 345.5,655.5 345.5,639.5C 347.5,639.5 349.5,639.5 351.5,639.5C 351.691,618.062 352.357,596.729 353.5,575.5C 353.167,565.167 352.833,554.833 352.5,544.5C 351.506,549.456 351.173,554.456 351.5,559.5C 350.5,559.5 349.5,559.5 348.5,559.5C 348.333,546.163 348.5,532.829 349,519.5C 350.964,515.769 352.297,511.769 353,507.5C 359.106,499.08 365.773,491.414 373,484.5C 375.422,481.9 377.255,478.9 378.5,475.5C 380.489,474.368 382.156,473.035 383.5,471.5C 384.461,467.206 387.128,464.539 391.5,463.5C 391.646,459.797 393.48,457.13 397,455.5C 397.333,456.167 397.667,456.833 398,457.5C 398.862,455.913 399.529,454.246 400,452.5C 400.671,451.748 401.504,451.414 402.5,451.5 Z"/></g>
<g><path style="opacity:1" fill="#4f5052" d="M 626.5,484.5 C 627.477,487.287 627.81,490.287 627.5,493.5C 620.167,493.5 612.833,493.5 605.5,493.5C 612.313,492.509 619.313,492.175 626.5,492.5C 626.5,489.833 626.5,487.167 626.5,484.5 Z"/></g>
<g><path style="opacity:1" fill="#0c0c0f" d="M 550.5,464.5 C 553.777,464.216 556.943,464.549 560,465.5C 560.333,471.833 560.667,478.167 561,484.5C 566.833,478 572.667,471.5 578.5,465C 582.5,464.333 586.5,464.333 590.5,465C 583.833,472.333 577.167,479.667 570.5,487C 577.121,495.956 584.121,504.623 591.5,513C 587.129,513.828 582.795,513.661 578.5,512.5C 573.451,506.786 568.785,500.786 564.5,494.5C 563.311,493.571 561.978,493.238 560.5,493.5C 560.5,500.167 560.5,506.833 560.5,513.5C 557.167,513.5 553.833,513.5 550.5,513.5C 550.5,497.167 550.5,480.833 550.5,464.5 Z"/></g>
<g><path style="opacity:1" fill="#3f4044" d="M 729.5,464.5 C 729.182,480.911 729.516,497.244 730.5,513.5C 729.169,505.695 728.502,497.528 728.5,489C 728.5,480.66 728.834,472.493 729.5,464.5 Z"/></g>
<g><path style="opacity:1" fill="#3f4044" d="M 688.5,483.5 C 688.5,493.5 688.5,503.5 688.5,513.5C 684.958,513.813 681.625,513.479 678.5,512.5C 681.5,512.5 684.5,512.5 687.5,512.5C 687.173,502.652 687.506,492.986 688.5,483.5 Z"/></g>
<g><path style="opacity:1" fill="#0a0b0e" d="M 766.5,464.5 C 769.85,464.335 773.183,464.502 776.5,465C 780.34,470.334 784.34,475.5 788.5,480.5C 792.031,475.283 795.698,470.116 799.5,465C 803.167,464.333 806.833,464.333 810.5,465C 805.605,473.23 799.938,480.896 793.5,488C 798.699,494.232 803.532,500.732 808,507.5C 809.559,509.217 810.392,511.217 810.5,513.5C 806.818,513.665 803.152,513.499 799.5,513C 795.622,507.411 791.622,501.911 787.5,496.5C 783.378,501.911 779.378,507.411 775.5,513C 772.118,513.824 768.784,513.657 765.5,512.5C 770.833,504.5 776.167,496.5 781.5,488.5C 775.477,481.117 770.477,473.117 766.5,464.5 Z"/></g>
<g><path style="opacity:1" fill="#1f294d" d="M 383.5,471.5 C 382.156,473.035 380.489,474.368 378.5,475.5C 377.255,478.9 375.422,481.9 373,484.5C 365.773,491.414 359.106,499.08 353,507.5C 352.297,511.769 350.964,515.769 349,519.5C 348.5,532.829 348.333,546.163 348.5,559.5C 349.5,559.5 350.5,559.5 351.5,559.5C 351.173,554.456 351.506,549.456 352.5,544.5C 352.833,554.833 353.167,565.167 353.5,575.5C 352.357,596.729 351.691,618.062 351.5,639.5C 349.5,639.5 347.5,639.5 345.5,639.5C 345.5,655.5 345.5,671.5 345.5,687.5C 347.5,687.5 349.5,687.5 351.5,687.5C 351.5,695.5 351.5,703.5 351.5,711.5C 350.5,711.5 349.5,711.5 348.5,711.5C 348.333,725.171 348.5,738.837 349,752.5C 349.893,751.289 350.726,751.289 351.5,752.5C 347.893,753.489 344.226,753.823 340.5,753.5C 340.343,754.873 340.51,756.207 341,757.5C 343.333,757.167 345.667,756.833 348,756.5C 348.317,758.301 348.984,758.634 350,757.5C 351.822,759.045 353.989,759.712 356.5,759.5C 358.64,759.444 360.306,758.777 361.5,757.5C 364.206,757.688 366.539,758.688 368.5,760.5C 368.167,761.167 367.833,761.833 367.5,762.5C 351.461,762.521 336.461,762.188 322.5,761.5C 323.167,761.167 323.833,760.833 324.5,760.5C 323.009,759.756 321.509,759.09 320,758.5C 318.544,745.864 318.378,733.197 319.5,720.5C 323.019,719.783 326.352,719.45 329.5,719.5C 329.5,703.491 329.834,687.491 330.5,671.5C 329.5,671.5 328.5,671.5 327.5,671.5C 327.92,655.445 327.253,644.778 325.5,639.5C 328.167,639.5 330.833,639.5 333.5,639.5C 333.529,613.143 334.362,586.809 336,560.5C 336.667,559.167 337.333,559.167 338,560.5C 338.333,559.833 338.667,559.167 339,558.5C 339.333,544.5 339.667,530.5 340,516.5C 342.172,515.491 343.338,513.824 343.5,511.5C 348.891,509.423 351.557,505.423 351.5,499.5C 352.833,499.5 354.167,499.5 355.5,499.5C 355.5,498.167 355.5,496.833 355.5,495.5C 356.833,495.5 358.167,495.5 359.5,495.5C 359.798,490.535 362.465,487.868 367.5,487.5C 367.798,482.535 370.465,479.868 375.5,479.5C 375.215,477.712 375.548,476.045 376.5,474.5C 378.258,472.262 380.592,471.262 383.5,471.5 Z"/></g>
<g><path style="opacity:1" fill="#0b0c0e" d="M 867.5,464.5 C 875.206,463.665 882.539,464.831 889.5,468C 890.728,468.779 891.728,469.779 892.5,471C 891.008,473.322 889.341,475.489 887.5,477.5C 885.032,476.197 882.699,474.697 880.5,473C 877.5,472.333 874.5,472.333 871.5,473C 867.541,476.236 867.874,479.236 872.5,482C 877.595,483.38 882.595,485.047 887.5,487C 893.171,491.53 895.004,497.363 893,504.5C 891.272,507.807 888.772,510.307 885.5,512C 874.884,515.436 865.384,513.603 857,506.5C 856.94,503.352 858.44,501.019 861.5,499.5C 864.705,501.602 868.038,503.435 871.5,505C 875.829,506.151 879.662,505.318 883,502.5C 883.808,500.421 883.641,498.421 882.5,496.5C 876.39,494.296 870.39,491.796 864.5,489C 855.787,479.54 856.787,471.373 867.5,464.5 Z"/></g>
<g><path style="opacity:1" fill="#212e53" d="M 494.5,499.5 C 497.056,500.543 499.223,502.21 501,504.5C 516.336,522.667 531.836,540.667 547.5,558.5C 546.178,558.67 545.011,558.337 544,557.5C 543.311,558.357 542.478,559.023 541.5,559.5C 540.771,555.477 538.438,552.143 534.5,549.5C 533.158,550.902 532.324,550.569 532,548.5C 530.984,549.634 530.317,549.301 530,547.5C 528.779,548.774 527.946,550.274 527.5,552C 529.145,554.164 530.812,556.33 532.5,558.5C 531.15,559.95 529.484,560.617 527.5,560.5C 527.827,565.544 527.494,570.544 526.5,575.5C 525.914,575.709 525.414,576.043 525,576.5C 515.667,576.5 506.333,576.5 497,576.5C 496.333,575.833 495.667,575.167 495,574.5C 494.667,569.5 494.333,564.5 494,559.5C 489.333,560.833 484.667,560.833 480,559.5C 479.503,562.146 479.336,564.813 479.5,567.5C 476.833,567.5 474.167,567.5 471.5,567.5C 471.334,575.507 471.5,583.507 472,591.5C 474.092,590.36 476.259,590.36 478.5,591.5C 479.833,602.167 479.833,612.833 478.5,623.5C 473.923,623.635 469.423,623.968 465,624.5C 464.333,629.167 464.333,633.833 465,638.5C 469.423,639.032 473.923,639.365 478.5,639.5C 479.494,644.456 479.827,649.456 479.5,654.5C 484.812,654.541 489.812,654.874 494.5,655.5C 494.334,650.489 494.501,645.489 495,640.5C 495.667,639.833 496.333,639.167 497,638.5C 501.333,638.833 505.667,639.167 510,639.5C 510.667,634.167 510.667,628.833 510,623.5C 505.667,623.833 501.333,624.167 497,624.5C 496.333,623.833 495.667,623.167 495,622.5C 494.333,612.5 494.333,602.5 495,592.5C 495.667,591.833 496.333,591.167 497,590.5C 506.333,590.5 515.667,590.5 525,590.5C 525.414,590.957 525.914,591.291 526.5,591.5C 527.833,607.5 527.833,623.5 526.5,639.5C 521.833,639.833 517.167,640.167 512.5,640.5C 511.833,645.167 511.167,649.833 510.5,654.5C 508.31,655.748 507.977,657.414 509.5,659.5C 510.325,660.386 511.325,660.719 512.5,660.5C 512.281,661.675 512.614,662.675 513.5,663.5C 516.885,665.978 520.052,668.645 523,671.5C 524.725,675.892 527.725,678.892 532,680.5C 532.91,684.193 535.077,686.693 538.5,688C 537.542,689.147 537.875,690.147 539.5,691C 540.793,691.49 542.127,691.657 543.5,691.5C 543.5,689.833 543.5,688.167 543.5,686.5C 548.88,686.324 554.213,686.658 559.5,687.5C 560.164,692.468 560.664,697.468 561,702.5C 564.339,702.291 567.839,702.625 571.5,703.5C 571.5,704.833 571.5,706.167 571.5,707.5C 567.719,706.379 564.219,706.379 561,707.5C 559.903,704.735 557.903,703.069 555,702.5C 554.667,699.833 554.333,697.167 554,694.5C 552.236,692.741 550.069,692.574 547.5,694C 548.062,696.479 549.062,699.146 550.5,702C 552.029,704.363 554.029,706.197 556.5,707.5C 557.648,711.418 560.315,713.418 564.5,713.5C 568.718,720.483 571.051,719.817 571.5,711.5C 572.822,711.33 573.989,711.663 575,712.5C 576.164,717.355 575.331,721.688 572.5,725.5C 572.833,726.5 573.5,727.167 574.5,727.5C 575.262,726.372 575.929,725.205 576.5,724C 579.482,723.502 582.482,723.335 585.5,723.5C 585.5,722.167 585.5,720.833 585.5,719.5C 587.5,719.5 589.5,719.5 591.5,719.5C 591.5,721.5 591.5,723.5 591.5,725.5C 590.167,725.5 588.833,725.5 587.5,725.5C 588.521,730.706 586.855,734.539 582.5,737C 584.219,738.057 586.053,738.89 588,739.5C 588.49,738.207 588.657,736.873 588.5,735.5C 595.139,735.057 601.472,734.89 607.5,735C 607.507,740.319 607.84,745.652 608.5,751C 614.167,751.333 619.833,751.667 625.5,752C 624.833,752.333 624.167,752.667 623.5,753C 625,753.167 626.5,753.333 628,753.5C 642.433,753.032 656.433,753.032 670,753.5C 672.841,751.496 676.007,750.996 679.5,752C 677.167,752.333 674.833,752.667 672.5,753C 673.833,753.167 675.167,753.333 676.5,753.5C 685.383,753.266 693.883,753.266 702,753.5C 702.333,751.5 702.667,749.5 703,747.5C 705.628,746.244 706.628,744.244 706,741.5C 704.591,739.108 703.091,736.774 701.5,734.5C 695.595,733.393 692.262,729.893 691.5,724C 691.57,723.235 691.903,722.735 692.5,722.5C 705.541,735.206 717.874,748.54 729.5,762.5C 688.053,764.486 646.386,765.152 604.5,764.5C 592.89,751.885 581.223,739.219 569.5,726.5C 562.868,718.3 555.534,710.634 547.5,703.5C 541.225,695.888 534.558,688.554 527.5,681.5C 519.241,672.697 510.741,664.03 502,655.5C 495.267,662.072 489.434,669.405 484.5,677.5C 480.86,681.806 476.86,685.806 472.5,689.5C 470.5,689.833 468.5,690.167 466.5,690.5C 466.617,692.484 465.95,694.15 464.5,695.5C 457.877,695.607 455.211,698.773 456.5,705C 453.535,706.659 451.201,708.993 449.5,712C 446.901,712.769 444.401,712.602 442,711.5C 441.5,692.836 441.333,674.17 441.5,655.5C 442.83,620.987 444.33,586.32 446,551.5C 447.11,549.963 448.61,549.297 450.5,549.5C 450.351,548.448 450.517,547.448 451,546.5C 453.403,545.219 455.237,543.386 456.5,541C 457.449,540.383 458.282,540.549 459,541.5C 462.167,538 465.333,534.5 468.5,531C 467.692,530.692 467.025,530.192 466.5,529.5C 468.837,528.483 470.504,526.816 471.5,524.5C 473.409,523.652 475.409,523.318 477.5,523.5C 477.238,522.022 477.571,520.689 478.5,519.5C 479.548,520.383 480.715,521.05 482,521.5C 485.666,518.519 487.332,514.852 487,510.5C 488.046,508.91 489.213,507.41 490.5,506C 489.906,505.536 489.239,505.369 488.5,505.5C 490.167,503.167 492.167,501.167 494.5,499.5 Z"/></g>
<g><path style="opacity:1" fill="#343539" d="M 595.5,487.5 C 596.493,495.65 596.826,503.983 596.5,512.5C 603.022,512.177 609.355,512.51 615.5,513.5C 608.833,513.5 602.167,513.5 595.5,513.5C 595.5,504.833 595.5,496.167 595.5,487.5 Z"/></g>
<g><path style="opacity:1" fill="#232d49" d="M 488.5,505.5 C 489.239,505.369 489.906,505.536 490.5,506C 489.213,507.41 488.046,508.91 487,510.5C 487.332,514.852 485.666,518.519 482,521.5C 480.715,521.05 479.548,520.383 478.5,519.5C 477.571,520.689 477.238,522.022 477.5,523.5C 475.409,523.318 473.409,523.652 471.5,524.5C 470.504,526.816 468.837,528.483 466.5,529.5C 467.025,530.192 467.692,530.692 468.5,531C 465.333,534.5 462.167,538 459,541.5C 458.282,540.549 457.449,540.383 456.5,541C 455.237,543.386 453.403,545.219 451,546.5C 450.517,547.448 450.351,548.448 450.5,549.5C 448.61,549.297 447.11,549.963 446,551.5C 444.33,586.32 442.83,620.987 441.5,655.5C 441.167,655.5 440.833,655.5 440.5,655.5C 440.789,628.821 441.455,602.154 442.5,575.5C 442.881,566.502 443.214,557.502 443.5,548.5C 458.223,533.774 473.223,519.441 488.5,505.5 Z"/></g>
<g><path style="opacity:1" fill="#1c1d1f" d="M 617.5,534.5 C 618.833,534.5 620.167,534.5 621.5,534.5C 621.833,537.5 620.5,538.833 617.5,538.5C 617.5,537.167 617.5,535.833 617.5,534.5 Z"/></g>
<g><path style="opacity:1" fill="#1f2023" d="M 587.5,534.5 C 588.833,534.5 590.167,534.5 591.5,534.5C 591.5,535.833 591.5,537.167 591.5,538.5C 590.167,538.5 588.833,538.5 587.5,538.5C 587.5,537.167 587.5,535.833 587.5,534.5 Z"/></g>
<g><path style="opacity:1" fill="#1d1e21" d="M 758.5,534.5 C 759.833,534.5 761.167,534.5 762.5,534.5C 762.5,535.5 762.5,536.5 762.5,537.5C 761.167,537.5 759.833,537.5 758.5,537.5C 758.5,536.5 758.5,535.5 758.5,534.5 Z"/></g>
<g><path style="opacity:1" fill="#707173" d="M 748.5,539.5 C 750.167,539.5 751.833,539.5 753.5,539.5C 753.768,541.099 753.434,542.432 752.5,543.5C 752.5,542.5 752.5,541.5 752.5,540.5C 750.901,540.768 749.568,540.434 748.5,539.5 Z"/></g>
<g><path style="opacity:1" fill="#161618" d="M 617.5,540.5 C 618.833,540.5 620.167,540.5 621.5,540.5C 621.5,545.833 621.5,551.167 621.5,556.5C 620.167,556.5 618.833,556.5 617.5,556.5C 617.5,551.167 617.5,545.833 617.5,540.5 Z"/></g>
<g><path style="opacity:1" fill="#16171a" d="M 659.5,533.5 C 660.5,533.5 661.5,533.5 662.5,533.5C 662.5,541.5 662.5,549.5 662.5,557.5C 661.5,557.5 660.5,557.5 659.5,557.5C 659.5,549.5 659.5,541.5 659.5,533.5 Z"/></g>
<g><path style="opacity:1" fill="#1c1c1e" d="M 748.5,539.5 C 749.568,540.434 750.901,540.768 752.5,540.5C 752.5,541.5 752.5,542.5 752.5,543.5C 751.167,543.5 749.833,543.5 748.5,543.5C 748.5,546.833 748.5,550.167 748.5,553.5C 750.5,553.5 752.5,553.5 754.5,553.5C 754.67,554.822 754.337,555.989 753.5,557C 750.534,557.895 747.867,557.395 745.5,555.5C 744.681,550.171 744.014,544.838 743.5,539.5C 744.5,539.5 745.5,539.5 746.5,539.5C 747.167,535.5 747.833,535.5 748.5,539.5 Z"/></g>
<g><path style="opacity:1" fill="#181f3b" d="M 400.5,457.5 C 400.5,460.833 400.5,464.167 400.5,467.5C 399.566,468.568 399.232,469.901 399.5,471.5C 396.115,473.371 393.115,475.871 390.5,479C 391.022,479.561 391.355,480.228 391.5,481C 389.242,485.537 388.075,490.37 388,495.5C 386.701,495.034 385.201,495.034 383.5,495.5C 383.819,493.25 383.319,491.25 382,489.5C 380.685,491.316 379.185,492.983 377.5,494.5C 378.802,502.503 379.469,510.669 379.5,519C 379.333,526.833 379.167,534.667 379,542.5C 377.936,543.944 377.436,545.611 377.5,547.5C 378.493,551.442 379.16,555.442 379.5,559.5C 378.55,580.5 378.05,601.5 378,622.5C 379.699,623.406 381.533,623.739 383.5,623.5C 383.667,634.172 383.5,644.839 383,655.5C 382,655.833 381,656.167 380,656.5C 379.088,661.464 378.588,666.464 378.5,671.5C 380.167,671.5 381.833,671.5 383.5,671.5C 383.314,697.87 383.814,724.204 385,750.5C 384,752.833 382.333,754.5 380,755.5C 378.869,754.396 378.035,754.729 377.5,756.5C 378.906,757.427 380.406,758.427 382,759.5C 382.483,760.448 382.649,761.448 382.5,762.5C 377.473,762.503 372.473,762.836 367.5,763.5C 367.5,763.167 367.5,762.833 367.5,762.5C 367.833,761.833 368.167,761.167 368.5,760.5C 369.239,760.631 369.906,760.464 370.5,760C 367.8,759.051 366.967,757.217 368,754.5C 372.699,752.332 372.532,751.332 367.5,751.5C 367.805,746.238 367.471,741.072 366.5,736C 367.448,735.517 368.448,735.351 369.5,735.5C 370.833,708.833 372.167,682.167 373.5,655.5C 372.167,655.5 370.833,655.5 369.5,655.5C 370.063,618.112 369.396,580.779 367.5,543.5C 369.467,543.739 371.301,543.406 373,542.5C 372.475,527.655 372.641,512.821 373.5,498C 373.055,496.553 372.388,495.22 371.5,494C 374.879,489.274 378.712,484.774 383,480.5C 383.483,479.552 383.649,478.552 383.5,477.5C 387.167,477.167 389.167,475.167 389.5,471.5C 389.167,468.5 390.5,467.167 393.5,467.5C 394.818,463.556 397.152,460.222 400.5,457.5 Z"/></g>
<g><path style="opacity:1" fill="#08090c" d="M 588.5,540.5 C 589.5,540.5 590.5,540.5 591.5,540.5C 591.5,545.833 591.5,551.167 591.5,556.5C 590.5,556.5 589.5,556.5 588.5,556.5C 588.5,551.167 588.5,545.833 588.5,540.5 Z"/></g>
<g><path style="opacity:1" fill="#0e0f11" d="M 759.5,541.5 C 761.442,546.056 762.108,551.056 761.5,556.5C 760.5,556.5 759.5,556.5 758.5,556.5C 758.179,551.305 758.513,546.305 759.5,541.5 Z"/></g>
<g><path style="opacity:1" fill="#111114" d="M 788.5,540.5 C 801.674,538.009 806.674,543.343 803.5,556.5C 802.5,556.5 801.5,556.5 800.5,556.5C 800.815,552.629 800.482,548.962 799.5,545.5C 798.848,544.275 797.681,543.608 796,543.5C 794.615,543.514 793.449,543.848 792.5,544.5C 791.517,548.298 791.183,552.298 791.5,556.5C 790.5,556.5 789.5,556.5 788.5,556.5C 788.5,551.167 788.5,545.833 788.5,540.5 Z"/></g>
<g><path style="opacity:1" fill="#37383a" d="M 636.5,542.5 C 635.081,543.451 633.415,543.784 631.5,543.5C 631.5,546.5 631.5,549.5 631.5,552.5C 630.521,549.375 630.187,546.042 630.5,542.5C 632.5,542.5 634.5,542.5 636.5,542.5 Z"/></g>
<g><path style="opacity:1" fill="#212e57" d="M 547.5,558.5 C 547.34,560.199 547.506,561.866 548,563.5C 553.245,565.318 554.578,568.651 552,573.5C 550.34,573.676 548.674,573.009 547,571.5C 548.272,568.486 547.439,566.153 544.5,564.5C 542.28,566.663 541.947,569.163 543.5,572C 540.854,572.497 538.187,572.664 535.5,572.5C 535.5,576.167 535.5,579.833 535.5,583.5C 538.167,583.5 540.833,583.5 543.5,583.5C 543.682,585.591 543.348,587.591 542.5,589.5C 543.145,590.646 543.978,591.646 545,592.5C 549.667,591.167 554.333,591.167 559,592.5C 560.205,591.929 561.372,591.262 562.5,590.5C 560.959,588.796 559.625,586.963 558.5,585C 558.862,583.775 559.362,582.609 560,581.5C 563.498,584.634 566.665,588.134 569.5,592C 574.348,591.593 576.848,593.759 577,598.5C 577.333,598.167 577.667,597.833 578,597.5C 581.065,600.062 583.565,603.062 585.5,606.5C 587.386,607.406 589.22,608.406 591,609.5C 592.577,613.523 594.077,617.523 595.5,621.5C 590.755,625.96 589.422,631.294 591.5,637.5C 590.801,643.48 590.301,649.48 590,655.5C 585.667,655.167 581.333,654.833 577,654.5C 576.333,655.167 575.667,655.833 575,656.5C 574.333,661.167 574.333,665.833 575,670.5C 575.667,671.167 576.333,671.833 577,672.5C 581.333,672.167 585.667,671.833 590,671.5C 590.333,676.5 590.667,681.5 591,686.5C 591.667,687.167 592.333,687.833 593,688.5C 602.333,688.5 611.667,688.5 621,688.5C 621.414,688.043 621.914,687.709 622.5,687.5C 623.04,681.356 623.873,675.356 625,669.5C 625.674,670.578 626.674,671.245 628,671.5C 631.164,672.42 634.164,672.753 637,672.5C 638.748,670.865 639.915,668.865 640.5,666.5C 642.978,667.722 643.978,669.722 643.5,672.5C 644.978,672.238 646.311,672.571 647.5,673.5C 653.787,681.622 660.62,689.289 668,696.5C 668.383,695.944 668.883,695.611 669.5,695.5C 677.535,704.2 685.202,713.2 692.5,722.5C 691.903,722.735 691.57,723.235 691.5,724C 692.262,729.893 695.595,733.393 701.5,734.5C 703.091,736.774 704.591,739.108 706,741.5C 706.628,744.244 705.628,746.244 703,747.5C 702.667,749.5 702.333,751.5 702,753.5C 693.883,753.266 685.383,753.266 676.5,753.5C 675.167,753.333 673.833,753.167 672.5,753C 674.833,752.667 677.167,752.333 679.5,752C 676.007,750.996 672.841,751.496 670,753.5C 656.433,753.032 642.433,753.032 628,753.5C 626.5,753.333 625,753.167 623.5,753C 624.167,752.667 624.833,752.333 625.5,752C 619.833,751.667 614.167,751.333 608.5,751C 607.84,745.652 607.507,740.319 607.5,735C 601.472,734.89 595.139,735.057 588.5,735.5C 588.657,736.873 588.49,738.207 588,739.5C 586.053,738.89 584.219,738.057 582.5,737C 586.855,734.539 588.521,730.706 587.5,725.5C 588.833,725.5 590.167,725.5 591.5,725.5C 591.5,723.5 591.5,721.5 591.5,719.5C 589.5,719.5 587.5,719.5 585.5,719.5C 585.5,720.833 585.5,722.167 585.5,723.5C 582.482,723.335 579.482,723.502 576.5,724C 575.929,725.205 575.262,726.372 574.5,727.5C 573.5,727.167 572.833,726.5 572.5,725.5C 575.331,721.688 576.164,717.355 575,712.5C 573.989,711.663 572.822,711.33 571.5,711.5C 571.051,719.817 568.718,720.483 564.5,713.5C 560.315,713.418 557.648,711.418 556.5,707.5C 554.029,706.197 552.029,704.363 550.5,702C 549.062,699.146 548.062,696.479 547.5,694C 550.069,692.574 552.236,692.741 554,694.5C 554.333,697.167 554.667,699.833 555,702.5C 557.903,703.069 559.903,704.735 561,707.5C 564.219,706.379 567.719,706.379 571.5,707.5C 571.5,706.167 571.5,704.833 571.5,703.5C 567.839,702.625 564.339,702.291 561,702.5C 560.664,697.468 560.164,692.468 559.5,687.5C 554.213,686.658 548.88,686.324 543.5,686.5C 543.5,688.167 543.5,689.833 543.5,691.5C 542.127,691.657 540.793,691.49 539.5,691C 537.875,690.147 537.542,689.147 538.5,688C 535.077,686.693 532.91,684.193 532,680.5C 527.725,678.892 524.725,675.892 523,671.5C 520.052,668.645 516.885,665.978 513.5,663.5C 512.614,662.675 512.281,661.675 512.5,660.5C 511.325,660.719 510.325,660.386 509.5,659.5C 507.977,657.414 508.31,655.748 510.5,654.5C 511.167,649.833 511.833,645.167 512.5,640.5C 517.167,640.167 521.833,639.833 526.5,639.5C 527.833,623.5 527.833,607.5 526.5,591.5C 525.914,591.291 525.414,590.957 525,590.5C 515.667,590.5 506.333,590.5 497,590.5C 496.333,591.167 495.667,591.833 495,592.5C 494.333,602.5 494.333,612.5 495,622.5C 495.667,623.167 496.333,623.833 497,624.5C 501.333,624.167 505.667,623.833 510,623.5C 510.667,628.833 510.667,634.167 510,639.5C 505.667,639.167 501.333,638.833 497,638.5C 496.333,639.167 495.667,639.833 495,640.5C 494.501,645.489 494.334,650.489 494.5,655.5C 489.812,654.874 484.812,654.541 479.5,654.5C 479.827,649.456 479.494,644.456 478.5,639.5C 473.923,639.365 469.423,639.032 465,638.5C 464.333,633.833 464.333,629.167 465,624.5C 469.423,623.968 473.923,623.635 478.5,623.5C 479.833,612.833 479.833,602.167 478.5,591.5C 476.259,590.36 474.092,590.36 472,591.5C 471.5,583.507 471.334,575.507 471.5,567.5C 474.167,567.5 476.833,567.5 479.5,567.5C 479.336,564.813 479.503,562.146 480,559.5C 484.667,560.833 489.333,560.833 494,559.5C 494.333,564.5 494.667,569.5 495,574.5C 495.667,575.167 496.333,575.833 497,576.5C 506.333,576.5 515.667,576.5 525,576.5C 525.414,576.043 525.914,575.709 526.5,575.5C 527.494,570.544 527.827,565.544 527.5,560.5C 529.484,560.617 531.15,559.95 532.5,558.5C 530.812,556.33 529.145,554.164 527.5,552C 527.946,550.274 528.779,548.774 530,547.5C 530.317,549.301 530.984,549.634 532,548.5C 532.324,550.569 533.158,550.902 534.5,549.5C 538.438,552.143 540.771,555.477 541.5,559.5C 542.478,559.023 543.311,558.357 544,557.5C 545.011,558.337 546.178,558.67 547.5,558.5 Z"/></g>
<g><path style="opacity:1" fill="#9e9fa3" d="M 788.5,540.5 C 788.5,545.833 788.5,551.167 788.5,556.5C 789.5,556.5 790.5,556.5 791.5,556.5C 791.183,552.298 791.517,548.298 792.5,544.5C 792.5,548.833 792.5,553.167 792.5,557.5C 790.833,557.5 789.167,557.5 787.5,557.5C 787.178,551.642 787.511,545.975 788.5,540.5 Z"/></g>
<g><path style="opacity:1" fill="#58595b" d="M 653.5,544.5 C 654.485,548.634 654.818,552.968 654.5,557.5C 652.435,557.483 650.435,557.15 648.5,556.5C 649.672,555.295 651.005,555.295 652.5,556.5C 653.491,552.555 653.824,548.555 653.5,544.5 Z"/></g>
<g><path style="opacity:1" fill="#5a5b5d" d="M 799.5,545.5 C 800.482,548.962 800.815,552.629 800.5,556.5C 801.5,556.5 802.5,556.5 803.5,556.5C 802.432,557.434 801.099,557.768 799.5,557.5C 799.5,553.5 799.5,549.5 799.5,545.5 Z"/></g>
<g><path style="opacity:1" fill="#161719" d="M 653.5,544.5 C 653.824,548.555 653.491,552.555 652.5,556.5C 651.005,555.295 649.672,555.295 648.5,556.5C 642.205,558.372 639.371,556.038 640,549.5C 643.321,548.029 646.821,547.363 650.5,547.5C 650.67,546.178 650.337,545.011 649.5,544C 646.493,543.699 643.493,543.865 640.5,544.5C 640.5,543.5 640.5,542.5 640.5,541.5C 643.799,540.624 647.132,540.457 650.5,541C 651.71,542.039 652.71,543.206 653.5,544.5 Z"/></g>
<g><path style="opacity:1" fill="#d5d6d8" d="M 644.5,550.5 C 647.082,550.025 649.082,550.692 650.5,552.5C 648.393,553.468 646.059,553.802 643.5,553.5C 643.263,552.209 643.596,551.209 644.5,550.5 Z"/></g>
<g><path style="opacity:1" fill="#808183" d="M 644.5,550.5 C 646.607,549.532 648.941,549.198 651.5,549.5C 651.737,550.791 651.404,551.791 650.5,552.5C 649.082,550.692 647.082,550.025 644.5,550.5 Z"/></g>
<g><path style="opacity:1" fill="#0f0f11" d="M 563.5,534.5 C 571.226,532.992 577.726,534.992 583,540.5C 584.472,546.076 583.305,550.909 579.5,555C 574.246,556.271 568.913,556.771 563.5,556.5C 563.5,549.167 563.5,541.833 563.5,534.5 Z"/></g>
<g><path style="opacity:1" fill="#696a6d" d="M 573.5,538.5 C 571.5,538.5 569.5,538.5 567.5,538.5C 567.5,543.167 567.5,547.833 567.5,552.5C 570.5,552.5 573.5,552.5 576.5,552.5C 573.375,553.479 570.042,553.813 566.5,553.5C 566.5,548.167 566.5,542.833 566.5,537.5C 569.059,537.198 571.393,537.532 573.5,538.5 Z"/></g>
<g><path style="opacity:1" fill="#cdced0" d="M 573.5,538.5 C 579.392,539.264 581.559,542.598 580,548.5C 579.34,550.324 578.173,551.657 576.5,552.5C 573.5,552.5 570.5,552.5 567.5,552.5C 567.5,547.833 567.5,543.167 567.5,538.5C 569.5,538.5 571.5,538.5 573.5,538.5 Z"/></g>
<g><path style="opacity:1" fill="#171719" d="M 678.5,534.5 C 681.518,534.335 684.518,534.502 687.5,535C 688.973,535.71 689.64,536.876 689.5,538.5C 686.193,537.949 682.86,537.616 679.5,537.5C 679.215,539.288 679.548,540.955 680.5,542.5C 684.821,543.077 688.321,545.077 691,548.5C 690.867,553.806 688.034,556.806 682.5,557.5C 680.423,557.308 678.423,556.808 676.5,556C 675.663,554.989 675.33,553.822 675.5,552.5C 679.131,553.412 682.797,553.579 686.5,553C 687.833,551.667 687.833,550.333 686.5,549C 682.375,548.296 678.875,546.463 676,543.5C 674.927,539.9 675.76,536.9 678.5,534.5 Z"/></g>
<g><path style="opacity:1" fill="#161619" d="M 709.5,554.5 C 708.5,554.833 707.833,555.5 707.5,556.5C 696.348,558.518 692.514,554.185 696,543.5C 701.281,539.301 706.281,539.634 711,544.5C 711.847,548.072 711.347,551.406 709.5,554.5 Z"/></g>
<g><path style="opacity:1" fill="#cccdd0" d="M 700.5,543.5 C 708.44,542.937 710.44,546.104 706.5,553C 697.192,554.183 695.192,551.016 700.5,543.5 Z"/></g>
<g><path style="opacity:1" fill="#171819" d="M 771.5,540.5 C 782.892,539.785 786.225,544.618 781.5,555C 771.491,559.294 766.658,556.128 767,545.5C 768.025,543.313 769.525,541.646 771.5,540.5 Z"/></g>
<g><path style="opacity:1" fill="#d2d3d5" d="M 771.5,543.5 C 779.993,542.471 782.327,545.637 778.5,553C 770.779,554.094 768.446,550.927 771.5,543.5 Z"/></g>
<g><path style="opacity:1" fill="#141416" d="M 599.5,562.5 C 599.389,561.883 599.056,561.383 598.5,561C 601.695,560.819 604.695,560.319 607.5,559.5C 609.476,558.573 609.809,557.24 608.5,555.5C 599.42,558.25 595.253,554.917 596,545.5C 596.785,543.714 597.951,542.214 599.5,541C 603.821,540.501 608.154,540.334 612.5,540.5C 612.666,546.842 612.5,553.175 612,559.5C 608.409,563.377 604.242,564.377 599.5,562.5 Z"/></g>
<g><path style="opacity:1" fill="#d0d0d1" d="M 601.5,543.5 C 608.673,541.839 611.173,544.506 609,551.5C 606.24,553.703 603.24,554.036 600,552.5C 599.068,549.177 599.568,546.177 601.5,543.5 Z"/></g>
<g><path style="opacity:1" fill="#1a1a1c" d="M 636.5,542.5 C 634.5,542.5 632.5,542.5 630.5,542.5C 630.187,546.042 630.521,549.375 631.5,552.5C 633.369,553.165 635.369,553.831 637.5,554.5C 634.982,558.156 631.982,558.489 628.5,555.5C 627.804,551.015 627.137,546.515 626.5,542C 627.723,539.943 628.723,537.777 629.5,535.5C 630.452,537.045 630.785,538.712 630.5,540.5C 633.082,540.025 635.082,540.692 636.5,542.5 Z"/></g>
<g><path style="opacity:1" fill="#131314" d="M 738.5,540.5 C 738.828,545.875 738.495,551.208 737.5,556.5C 736.313,555.347 735.313,555.347 734.5,556.5C 731.315,556.98 728.481,556.314 726,554.5C 724.621,549.964 724.121,545.297 724.5,540.5C 725.5,540.5 726.5,540.5 727.5,540.5C 727.5,544.833 727.5,549.167 727.5,553.5C 730.119,553.768 732.619,553.435 735,552.5C 735.499,548.514 735.666,544.514 735.5,540.5C 736.5,540.5 737.5,540.5 738.5,540.5 Z"/></g>
<g><path style="opacity:1" fill="#161719" d="M 810.5,540.5 C 813.167,540.5 815.833,540.5 818.5,540.5C 818.649,541.552 818.483,542.552 818,543.5C 814.242,541.527 812.075,542.527 811.5,546.5C 815.999,546.171 818.999,548.004 820.5,552C 817.084,558.107 812.75,558.941 807.5,554.5C 810.447,553.679 813.447,553.179 816.5,553C 816.957,552.586 817.291,552.086 817.5,551.5C 814.2,550.456 811.033,549.123 808,547.5C 807.162,544.519 807.995,542.186 810.5,540.5 Z"/></g>
<g><path style="opacity:1" fill="#757678" d="M 738.5,540.5 C 739.489,545.975 739.822,551.642 739.5,557.5C 737.708,557.634 736.042,557.301 734.5,556.5C 735.313,555.347 736.313,555.347 737.5,556.5C 738.495,551.208 738.828,545.875 738.5,540.5 Z"/></g>
<g><path style="opacity:1" fill="#6b6c6e" d="M 759.5,541.5 C 760.209,540.596 761.209,540.263 762.5,540.5C 762.5,546.167 762.5,551.833 762.5,557.5C 760.901,557.768 759.568,557.434 758.5,556.5C 759.5,556.5 760.5,556.5 761.5,556.5C 762.108,551.056 761.442,546.056 759.5,541.5 Z"/></g>
<g><path style="opacity:1" fill="#b1b2b4" d="M 715.5,533.5 C 715.5,541.167 715.5,548.833 715.5,556.5C 716.5,556.5 717.5,556.5 718.5,556.5C 718.5,548.833 718.5,541.167 718.5,533.5C 719.492,541.316 719.826,549.316 719.5,557.5C 718.127,557.343 716.793,557.51 715.5,558C 718.063,558.763 718.063,559.263 715.5,559.5C 713.481,558.86 711.647,558.86 710,559.5C 708.933,558.809 707.766,558.309 706.5,558C 707.056,557.617 707.389,557.117 707.5,556.5C 707.833,555.5 708.5,554.833 709.5,554.5C 709.351,555.552 709.517,556.552 710,557.5C 711.299,557.034 712.799,557.034 714.5,557.5C 714.174,549.316 714.508,541.316 715.5,533.5 Z"/></g>
<g><path style="opacity:1" fill="#06070a" d="M 715.5,533.5 C 716.5,533.5 717.5,533.5 718.5,533.5C 718.5,541.167 718.5,548.833 718.5,556.5C 717.5,556.5 716.5,556.5 715.5,556.5C 715.5,548.833 715.5,541.167 715.5,533.5 Z"/></g>
<g><path style="opacity:1" fill="#c4c9d8" d="M 433.5,254.5 C 406.167,254.5 378.833,254.5 351.5,254.5C 336.833,254.5 322.167,254.5 307.5,254.5C 306.5,422.333 306.167,590.333 306.5,758.5C 305.833,758.5 305.5,758.167 305.5,757.5C 305.795,755.265 305.461,753.265 304.5,751.5C 305.62,594.17 305.786,436.836 305,279.5C 304.166,270.807 303.333,262.141 302.5,253.5C 303.289,251.512 304.455,251.179 306,252.5C 307.067,251.809 308.234,251.309 309.5,251C 308.483,249.951 308.316,248.784 309,247.5C 309.419,248.672 310.085,249.672 311,250.5C 312.316,247.953 314.149,247.287 316.5,248.5C 317.452,246.955 317.785,245.288 317.5,243.5C 312.792,242.824 308.125,241.824 303.5,240.5C 307.041,239.8 310.541,239.133 314,238.5C 315.333,238.5 316.667,238.5 318,238.5C 318.956,239.579 319.789,240.745 320.5,242C 330.828,242.5 341.161,242.666 351.5,242.5C 351.5,243.833 351.5,245.167 351.5,246.5C 341.145,246.168 330.812,246.501 320.5,247.5C 319.289,248.72 319.289,249.887 320.5,251C 330.833,251.667 341.167,251.667 351.5,251C 354.167,250.333 354.167,249.667 351.5,249C 352.416,248.626 353.25,248.126 354,247.5C 356.667,247.5 359.333,247.5 362,247.5C 362.667,250.167 363.333,250.167 364,247.5C 364.667,250.167 365.333,250.167 366,247.5C 366.667,250.167 367.333,250.167 368,247.5C 370.667,247.5 373.333,247.5 376,247.5C 376.333,248.167 376.667,248.833 377,249.5C 378.371,249.757 379.871,249.423 381.5,248.5C 382.91,248.868 383.91,249.701 384.5,251C 397.944,251.97 411.277,251.47 424.5,249.5C 429.035,248.849 432.035,250.516 433.5,254.5 Z"/></g>
<g><path style="opacity:1" fill="#46474b" d="M 607.5,559.5 C 604.695,560.319 601.695,560.819 598.5,561C 599.056,561.383 599.389,561.883 599.5,562.5C 597.952,562.179 597.285,561.179 597.5,559.5C 600.833,559.5 604.167,559.5 607.5,559.5 Z"/></g>
<g><path style="opacity:1" fill="#3f465d" d="M 307.5,254.5 C 307.5,422.833 307.5,591.167 307.5,759.5C 307.5,760.833 307.5,762.167 307.5,763.5C 329.994,764.497 352.661,764.831 375.5,764.5C 375.5,764.833 375.5,765.167 375.5,765.5C 352.5,765.5 329.5,765.5 306.5,765.5C 306.5,765.167 306.5,764.833 306.5,764.5C 306.5,762.5 306.5,760.5 306.5,758.5C 306.167,590.333 306.5,422.333 307.5,254.5 Z"/></g>
<g><path style="opacity:1" fill="#131a2c" d="M 401.5,454.5 C 401.5,557.833 401.5,661.167 401.5,764.5C 395.5,764.5 389.5,764.5 383.5,764.5C 386.485,762.542 389.985,761.542 394,761.5C 396.674,762.786 398.508,762.286 399.5,760C 399.589,758.284 399.256,756.451 398.5,754.5C 400.034,751.029 400.7,747.362 400.5,743.5C 399.218,733.502 399.218,723.502 400.5,713.5C 400.433,707.395 399.766,701.395 398.5,695.5C 398.765,689.611 399.432,683.778 400.5,678C 399.125,659.594 397.458,641.428 395.5,623.5C 395.667,618.5 395.833,613.5 396,608.5C 397.569,607.286 398.402,605.619 398.5,603.5C 398.825,592.851 398.492,582.184 397.5,571.5C 400.007,536.886 401.007,502.219 400.5,467.5C 400.5,464.167 400.5,460.833 400.5,457.5C 400.263,456.209 400.596,455.209 401.5,454.5 Z"/></g>
<g><path style="opacity:1" fill="#cacacb" d="M 443.5,548.5 C 443.214,557.502 442.881,566.502 442.5,575.5C 442.167,575.5 441.833,575.5 441.5,575.5C 440.883,575.389 440.383,575.056 440,574.5C 438.5,579.655 437,584.821 435.5,590C 436.167,590.333 436.833,590.667 437.5,591C 435.61,592.891 434.11,595.058 433,597.5C 425.355,627.869 418.355,657.536 412,686.5C 411.3,688.032 410.134,689.032 408.5,689.5C 407.816,694.208 406.982,698.874 406,703.5C 404.491,695.404 403.324,687.404 402.5,679.5C 402.5,665.833 402.5,652.167 402.5,638.5C 403.326,633.684 403.826,628.684 404,623.5C 404.445,636.845 405.112,650.178 406,663.5C 406.333,655.5 406.667,647.5 407,639.5C 408.625,635.721 409.625,631.721 410,627.5C 411.066,624.782 412.733,622.449 415,620.5C 419.304,603.477 425.638,587.144 434,571.5C 434.718,572.451 435.551,572.617 436.5,572C 439.161,567.683 440.828,563.016 441.5,558C 441.167,557 440.833,556 440.5,555C 441.973,554.29 442.64,553.124 442.5,551.5C 442.263,550.209 442.596,549.209 443.5,548.5 Z"/></g>
<g><path style="opacity:1" fill="#b9b9ba" d="M 441.5,575.5 C 440.502,586.118 439.502,596.785 438.5,607.5C 437.6,611.801 436.434,616.468 435,621.5C 434.29,622.973 433.124,623.64 431.5,623.5C 432.181,634.418 430.181,644.752 425.5,654.5C 426.022,655.607 426.355,656.774 426.5,658C 423.899,671.235 421.066,684.401 418,697.5C 416.764,698.399 415.93,699.566 415.5,701C 415.537,705.221 415.537,709.388 415.5,713.5C 413.81,720.376 412.643,727.376 412,734.5C 410.667,735.833 409.333,735.833 408,734.5C 407.667,732.167 407.333,729.833 407,727.5C 406.333,735.5 406.333,743.5 407,751.5C 408.368,752.993 408.535,754.493 407.5,756C 408.094,756.464 408.761,756.631 409.5,756.5C 408.71,757.794 407.71,758.961 406.5,760C 406.833,760.333 407.167,760.667 407.5,761C 405.068,761.743 403.401,763.243 402.5,765.5C 402.5,736.833 402.5,708.167 402.5,679.5C 403.324,687.404 404.491,695.404 406,703.5C 406.982,698.874 407.816,694.208 408.5,689.5C 410.134,689.032 411.3,688.032 412,686.5C 418.355,657.536 425.355,627.869 433,597.5C 434.11,595.058 435.61,592.891 437.5,591C 436.833,590.667 436.167,590.333 435.5,590C 437,584.821 438.5,579.655 440,574.5C 440.383,575.056 440.883,575.389 441.5,575.5 Z"/></g>
<g><path style="opacity:1" fill="#dddddf" d="M 442.5,551.5 C 442.64,553.124 441.973,554.29 440.5,555C 440.833,556 441.167,557 441.5,558C 440.828,563.016 439.161,567.683 436.5,572C 435.551,572.617 434.718,572.451 434,571.5C 425.638,587.144 419.304,603.477 415,620.5C 412.733,622.449 411.066,624.782 410,627.5C 409.625,631.721 408.625,635.721 407,639.5C 406.667,647.5 406.333,655.5 406,663.5C 405.112,650.178 404.445,636.845 404,623.5C 403.826,628.684 403.326,633.684 402.5,638.5C 402.5,622.833 402.5,607.167 402.5,591.5C 403.328,597.319 403.828,603.319 404,609.5C 404.333,603.5 404.667,597.5 405,591.5C 405.333,592.167 405.667,592.833 406,593.5C 407,592.5 408,591.5 409,590.5C 413.534,585.292 417.534,579.626 421,573.5C 426.901,567.355 432.568,561.022 438,554.5C 439.271,553.117 440.771,552.117 442.5,551.5 Z"/></g>
<g><path style="opacity:1" fill="#b0b0b0" d="M 438.5,607.5 C 439.641,610.64 439.808,613.973 439,617.5C 437.198,627.395 434.698,637.062 431.5,646.5C 431.931,647.293 432.265,648.127 432.5,649C 431.524,653.357 430.524,657.69 429.5,662C 429.667,663.167 429.833,664.333 430,665.5C 430.333,664.833 430.667,664.167 431,663.5C 431.167,665.5 431.333,667.5 431.5,669.5C 430.269,677.689 428.936,685.856 427.5,694C 427.833,695 428.167,696 428.5,697C 427.416,707.368 426.416,717.701 425.5,728C 428.176,730.67 427.842,733.003 424.5,735C 425.356,736.595 426.689,737.428 428.5,737.5C 423.532,741.505 419.199,746.171 415.5,751.5C 413.413,752.585 412.08,754.251 411.5,756.5C 410.833,756.5 410.167,756.5 409.5,756.5C 408.761,756.631 408.094,756.464 407.5,756C 408.535,754.493 408.368,752.993 407,751.5C 406.333,743.5 406.333,735.5 407,727.5C 407.333,729.833 407.667,732.167 408,734.5C 409.333,735.833 410.667,735.833 412,734.5C 412.643,727.376 413.81,720.376 415.5,713.5C 415.537,709.388 415.537,705.221 415.5,701C 415.93,699.566 416.764,698.399 418,697.5C 421.066,684.401 423.899,671.235 426.5,658C 426.355,656.774 426.022,655.607 425.5,654.5C 430.181,644.752 432.181,634.418 431.5,623.5C 433.124,623.64 434.29,622.973 435,621.5C 436.434,616.468 437.6,611.801 438.5,607.5 Z"/></g>
<g><path style="opacity:1" fill="#222e54" d="M 547.5,558.5 C 588.167,604.167 628.833,649.833 669.5,695.5C 668.883,695.611 668.383,695.944 668,696.5C 660.62,689.289 653.787,681.622 647.5,673.5C 646.311,672.571 644.978,672.238 643.5,672.5C 643.978,669.722 642.978,667.722 640.5,666.5C 639.915,668.865 638.748,670.865 637,672.5C 634.164,672.753 631.164,672.42 628,671.5C 626.674,671.245 625.674,670.578 625,669.5C 623.873,675.356 623.04,681.356 622.5,687.5C 621.914,687.709 621.414,688.043 621,688.5C 611.667,688.5 602.333,688.5 593,688.5C 592.333,687.833 591.667,687.167 591,686.5C 590.667,681.5 590.333,676.5 590,671.5C 585.667,671.833 581.333,672.167 577,672.5C 576.333,671.833 575.667,671.167 575,670.5C 574.333,665.833 574.333,661.167 575,656.5C 575.667,655.833 576.333,655.167 577,654.5C 581.333,654.833 585.667,655.167 590,655.5C 590.301,649.48 590.801,643.48 591.5,637.5C 589.422,631.294 590.755,625.96 595.5,621.5C 594.077,617.523 592.577,613.523 591,609.5C 589.22,608.406 587.386,607.406 585.5,606.5C 583.565,603.062 581.065,600.062 578,597.5C 577.667,597.833 577.333,598.167 577,598.5C 576.848,593.759 574.348,591.593 569.5,592C 566.665,588.134 563.498,584.634 560,581.5C 559.362,582.609 558.862,583.775 558.5,585C 559.625,586.963 560.959,588.796 562.5,590.5C 561.372,591.262 560.205,591.929 559,592.5C 554.333,591.167 549.667,591.167 545,592.5C 543.978,591.646 543.145,590.646 542.5,589.5C 543.348,587.591 543.682,585.591 543.5,583.5C 540.833,583.5 538.167,583.5 535.5,583.5C 535.5,579.833 535.5,576.167 535.5,572.5C 538.187,572.664 540.854,572.497 543.5,572C 541.947,569.163 542.28,566.663 544.5,564.5C 547.439,566.153 548.272,568.486 547,571.5C 548.674,573.009 550.34,573.676 552,573.5C 554.578,568.651 553.245,565.318 548,563.5C 547.506,561.866 547.34,560.199 547.5,558.5 Z"/></g>
<g><path style="opacity:1" fill="#373d49" d="M 402.5,452.5 C 402.5,498.833 402.5,545.167 402.5,591.5C 402.5,607.167 402.5,622.833 402.5,638.5C 402.5,652.167 402.5,665.833 402.5,679.5C 402.5,708.167 402.5,736.833 402.5,765.5C 393.5,765.5 384.5,765.5 375.5,765.5C 375.5,765.167 375.5,764.833 375.5,764.5C 378.167,764.5 380.833,764.5 383.5,764.5C 389.5,764.5 395.5,764.5 401.5,764.5C 401.5,661.167 401.5,557.833 401.5,454.5C 401.328,453.508 401.662,452.842 402.5,452.5 Z"/></g>
<g><path style="opacity:1" fill="#58595e" d="M 527.5,681.5 C 526.504,681.586 525.671,681.252 525,680.5C 524.654,682.218 524.154,683.885 523.5,685.5C 527.311,686.738 527.311,687.404 523.5,687.5C 523.478,691.593 522.811,695.593 521.5,699.5C 522,703.5 522.5,707.5 523,711.5C 525.096,712.715 524.929,713.549 522.5,714C 523.551,715.385 524.884,716.385 526.5,717C 525.944,717.383 525.611,717.883 525.5,718.5C 511.392,705.058 497.725,691.392 484.5,677.5C 489.434,669.405 495.267,662.072 502,655.5C 510.741,664.03 519.241,672.697 527.5,681.5 Z"/></g>
<g><path style="opacity:1" fill="#a4a4a7" d="M 441.5,575.5 C 441.833,575.5 442.167,575.5 442.5,575.5C 441.455,602.154 440.789,628.821 440.5,655.5C 439.734,678.668 439.734,701.668 440.5,724.5C 436.812,729.186 432.812,733.519 428.5,737.5C 426.689,737.428 425.356,736.595 424.5,735C 427.842,733.003 428.176,730.67 425.5,728C 426.416,717.701 427.416,707.368 428.5,697C 428.167,696 427.833,695 427.5,694C 428.936,685.856 430.269,677.689 431.5,669.5C 431.333,667.5 431.167,665.5 431,663.5C 430.667,664.167 430.333,664.833 430,665.5C 429.833,664.333 429.667,663.167 429.5,662C 430.524,657.69 431.524,653.357 432.5,649C 432.265,648.127 431.931,647.293 431.5,646.5C 434.698,637.062 437.198,627.395 439,617.5C 439.808,613.973 439.641,610.64 438.5,607.5C 439.502,596.785 440.502,586.118 441.5,575.5 Z"/></g>
<g><path style="opacity:1" fill="#cbcdd1" d="M 484.5,677.5 C 497.725,691.392 511.392,705.058 525.5,718.5C 530.167,723.833 535.167,728.833 540.5,733.5C 545.527,739.194 550.86,744.527 556.5,749.5C 554.012,751.388 551.012,752.055 547.5,751.5C 510.853,750.283 474.187,750.449 437.5,752C 429.97,753.242 422.47,754.409 415,755.5C 414.805,754.181 414.972,752.847 415.5,751.5C 419.199,746.171 423.532,741.505 428.5,737.5C 432.812,733.519 436.812,729.186 440.5,724.5C 451.848,713.484 462.514,701.818 472.5,689.5C 476.86,685.806 480.86,681.806 484.5,677.5 Z"/></g>
<g><path style="opacity:1" fill="#65666a" d="M 527.5,681.5 C 534.558,688.554 541.225,695.888 547.5,703.5C 547.221,706.118 546.554,708.618 545.5,711C 546.167,713.333 546.833,715.667 547.5,718C 545.75,719.319 543.75,719.819 541.5,719.5C 541.506,723.634 541.839,727.467 542.5,731C 540.822,731.484 540.156,732.317 540.5,733.5C 535.167,728.833 530.167,723.833 525.5,718.5C 525.611,717.883 525.944,717.383 526.5,717C 524.884,716.385 523.551,715.385 522.5,714C 524.929,713.549 525.096,712.715 523,711.5C 522.5,707.5 522,703.5 521.5,699.5C 522.811,695.593 523.478,691.593 523.5,687.5C 527.311,687.404 527.311,686.738 523.5,685.5C 524.154,683.885 524.654,682.218 525,680.5C 525.671,681.252 526.504,681.586 527.5,681.5 Z"/></g>
<g><path style="opacity:1" fill="#28304d" d="M 440.5,655.5 C 440.833,655.5 441.167,655.5 441.5,655.5C 441.333,674.17 441.5,692.836 442,711.5C 444.401,712.602 446.901,712.769 449.5,712C 451.201,708.993 453.535,706.659 456.5,705C 455.211,698.773 457.877,695.607 464.5,695.5C 465.95,694.15 466.617,692.484 466.5,690.5C 468.5,690.167 470.5,689.833 472.5,689.5C 462.514,701.818 451.848,713.484 440.5,724.5C 439.734,701.668 439.734,678.668 440.5,655.5 Z"/></g>
<g><path style="opacity:1" fill="#737476" d="M 547.5,703.5 C 555.534,710.634 562.868,718.3 569.5,726.5C 569.238,727.978 569.571,729.311 570.5,730.5C 572.475,731.275 573.309,732.609 573,734.5C 571.829,732.384 570.329,731.718 568.5,732.5C 570.437,734.149 571.437,736.315 571.5,739C 570.877,743.147 570.544,747.314 570.5,751.5C 572.167,751.5 573.833,751.5 575.5,751.5C 575.37,757.304 578.037,760.637 583.5,761.5C 576.752,761.323 570.085,760.49 563.5,759C 556.702,758.064 550.036,758.564 543.5,760.5C 544.376,761.251 545.376,761.751 546.5,762C 546.167,762.333 545.833,762.667 545.5,763C 548.365,763.183 551.031,763.683 553.5,764.5C 546.156,764.221 538.823,763.721 531.5,763C 529.285,762.612 527.952,761.612 527.5,760C 538.206,757.086 549.206,755.586 560.5,755.5C 560.737,754.209 560.404,753.209 559.5,752.5C 558.833,751.167 557.833,750.167 556.5,749.5C 550.86,744.527 545.527,739.194 540.5,733.5C 540.156,732.317 540.822,731.484 542.5,731C 541.839,727.467 541.506,723.634 541.5,719.5C 543.75,719.819 545.75,719.319 547.5,718C 546.833,715.667 546.167,713.333 545.5,711C 546.554,708.618 547.221,706.118 547.5,703.5 Z"/></g>
<g><path style="opacity:1" fill="#828287" d="M 569.5,726.5 C 581.223,739.219 592.89,751.885 604.5,764.5C 604.5,764.833 604.5,765.167 604.5,765.5C 582.833,765.5 561.167,765.5 539.5,765.5C 531.33,764.561 522.996,763.728 514.5,763C 513.377,761.956 512.044,761.29 510.5,761C 513.048,758.558 516.048,756.892 519.5,756C 527.677,755.829 535.677,755.329 543.5,754.5C 548.833,753.833 554.167,753.167 559.5,752.5C 560.404,753.209 560.737,754.209 560.5,755.5C 549.206,755.586 538.206,757.086 527.5,760C 527.952,761.612 529.285,762.612 531.5,763C 538.823,763.721 546.156,764.221 553.5,764.5C 569.514,764.833 585.514,764.499 601.5,763.5C 595.557,762.306 589.557,761.639 583.5,761.5C 578.037,760.637 575.37,757.304 575.5,751.5C 573.833,751.5 572.167,751.5 570.5,751.5C 570.544,747.314 570.877,743.147 571.5,739C 571.437,736.315 570.437,734.149 568.5,732.5C 570.329,731.718 571.829,732.384 573,734.5C 573.309,732.609 572.475,731.275 570.5,730.5C 569.571,729.311 569.238,727.978 569.5,726.5 Z"/></g>
<g><path style="opacity:1" fill="#c2c3c7" d="M 304.5,751.5 C 305.461,753.265 305.795,755.265 305.5,757.5C 288.779,756.243 272.112,756.91 255.5,759.5C 255.5,760.5 255.5,761.5 255.5,762.5C 272.444,764.194 289.444,764.86 306.5,764.5C 306.5,764.833 306.5,765.167 306.5,765.5C 285.977,765.195 265.477,765.529 245,766.5C 232.543,764.936 220.043,763.769 207.5,763C 201.068,761.114 201.068,759.947 207.5,759.5C 207.5,758.5 207.5,757.5 207.5,756.5C 211.593,756.478 215.593,755.811 219.5,754.5C 222.167,754.833 224.833,755.167 227.5,755.5C 235.795,754.285 244.128,753.452 252.5,753C 253.025,752.308 253.692,751.808 254.5,751.5C 271.417,750.287 288.083,750.287 304.5,751.5 Z"/></g>
<g><path style="opacity:1" fill="#212e58" d="M 598.5,750.5 C 600.042,751.301 601.708,751.634 603.5,751.5C 603.351,752.552 603.517,753.552 604,754.5C 606.167,755.333 607.667,756.833 608.5,759C 613.5,759.667 618.5,759.667 623.5,759C 624.416,758.626 625.25,758.126 626,757.5C 627.667,757.833 629.333,758.167 631,758.5C 631.333,757.833 631.667,757.167 632,756.5C 634,757.833 636,757.833 638,756.5C 639,757.167 640,757.833 641,758.5C 645.333,758.167 649.667,757.833 654,757.5C 655,758.167 656,758.833 657,759.5C 661,759.5 665,759.5 669,759.5C 670,758.833 671,758.167 672,757.5C 682,758.833 692,758.833 702,757.5C 707.256,759.727 712.756,760.561 718.5,760C 721.996,756.573 723.996,757.406 724.5,762.5C 714.828,762.666 705.161,762.5 695.5,762C 695,761.5 694.5,761 694,760.5C 687.549,761.526 680.049,762.192 671.5,762.5C 662.882,762.634 654.382,761.968 646,760.5C 634.325,761.001 622.658,761.668 611,762.5C 604.7,761.712 600.2,758.379 597.5,752.5C 597.863,751.817 598.196,751.15 598.5,750.5 Z"/></g>
<g><path style="opacity:1" fill="#bbbcc0" d="M 547.5,751.5 C 523.014,752.926 498.347,753.759 473.5,754C 467.061,754.153 461.061,755.82 455.5,759C 457.725,759.561 459.725,760.561 461.5,762C 472.825,762.759 484.158,763.259 495.5,763.5C 501.833,764.167 508.167,764.833 514.5,765.5C 480.801,765.911 447.134,765.244 413.5,763.5C 412.748,760.782 412.081,758.448 411.5,756.5C 412.08,754.251 413.413,752.585 415.5,751.5C 414.972,752.847 414.805,754.181 415,755.5C 422.47,754.409 429.97,753.242 437.5,752C 474.187,750.449 510.853,750.283 547.5,751.5 Z"/></g>
<g><path style="opacity:1" fill="#acacb1" d="M 556.5,749.5 C 557.833,750.167 558.833,751.167 559.5,752.5C 554.167,753.167 548.833,753.833 543.5,754.5C 525.794,754.272 508.128,754.939 490.5,756.5C 487.662,756.553 486.495,757.886 487,760.5C 489.87,761.693 492.704,762.693 495.5,763.5C 484.158,763.259 472.825,762.759 461.5,762C 459.725,760.561 457.725,759.561 455.5,759C 461.061,755.82 467.061,754.153 473.5,754C 498.347,753.759 523.014,752.926 547.5,751.5C 551.012,752.055 554.012,751.388 556.5,749.5 Z"/></g>
<g><path style="opacity:1" fill="#b2b4b8" d="M 305.5,757.5 C 305.5,758.167 305.833,758.5 306.5,758.5C 306.5,760.5 306.5,762.5 306.5,764.5C 289.444,764.86 272.444,764.194 255.5,762.5C 255.5,761.5 255.5,760.5 255.5,759.5C 272.112,756.91 288.779,756.243 305.5,757.5 Z"/></g>
<g><path style="opacity:1" fill="#9d9ca1" d="M 543.5,754.5 C 535.677,755.329 527.677,755.829 519.5,756C 516.048,756.892 513.048,758.558 510.5,761C 512.044,761.29 513.377,761.956 514.5,763C 522.996,763.728 531.33,764.561 539.5,765.5C 531.167,765.5 522.833,765.5 514.5,765.5C 508.167,764.833 501.833,764.167 495.5,763.5C 492.704,762.693 489.87,761.693 487,760.5C 486.495,757.886 487.662,756.553 490.5,756.5C 508.128,754.939 525.794,754.272 543.5,754.5 Z"/></g>
<g><path style="opacity:1" fill="#5d5c60" d="M 583.5,761.5 C 589.557,761.639 595.557,762.306 601.5,763.5C 585.514,764.499 569.514,764.833 553.5,764.5C 551.031,763.683 548.365,763.183 545.5,763C 545.833,762.667 546.167,762.333 546.5,762C 545.376,761.751 544.376,761.251 543.5,760.5C 550.036,758.564 556.702,758.064 563.5,759C 570.085,760.49 576.752,761.323 583.5,761.5 Z"/></g>
<g><path style="opacity:1" fill="#40475d" d="M 729.5,762.5 C 730.627,763.122 731.627,763.955 732.5,765C 689.835,765.5 647.168,765.667 604.5,765.5C 604.5,765.167 604.5,764.833 604.5,764.5C 646.386,765.152 688.053,764.486 729.5,762.5 Z"/></g>
</svg>
